<?xml version="1.0" encoding="utf-8"?>
<!-- Generator: Adobe Illustrator 22.1.0, SVG Export Plug-In . SVG Version: 6.00 Build 0)  -->
<svg version="1.1" id="图层_1" xmlns="http://www.w3.org/2000/svg" xmlns:xlink="http://www.w3.org/1999/xlink" x="0px" y="0px"
	 viewBox="0 0 236.9 342.8" style="enable-background:new 0 0 236.9 342.8;" xml:space="preserve">
<style type="text/css">
	.st0{fill:#090F11;}
	.st1{fill:#058CB0;}
	.st2{fill:#235A99;}
	.st3{fill:#FBFAEB;}
	.st4{fill:#E79E00;}
</style>
<g>
	<path class="st0" d="M45.1,94.4c-2.6-1.6-2.2-3.8-1.7-6.1c-2.1-0.4-4.2-0.6-6.2-1.2c-2.4-0.7-4.6-1.9-6.4-3.5
		c-2.7-2.4-3.3-5.6-3.5-8.9c-0.1-2,0.1-4,0.4-5.9c0.1-0.8,0.1-1.3-0.7-1.6c-2.7-1.2-5.3-2.9-8-4.3c-0.8-0.4-1.4-1.3-2.6-0.8
		c-0.1,0.1-0.5-0.2-0.7-0.4c-1.7-2-4.1-3-6.2-4.2c-1.1-0.6-2.1-1.3-2.9-2.3c-0.5-0.6-0.9-1.3-0.5-2.1c1.3-2.2,0.8-4.7,1.1-7
		c0.2-1.8,0.4-3.5,0.7-5.3c0.2-1.2,0.7-1.6,1.8-1.8c3.1-0.6,6.3-1.3,9.5-1.5c0.6,0,1.2,0.1,1.9-0.3c-0.6-2.2-1.3-4.4-1.6-6.7
		c-0.4-3.9,0.1-7.6,1.4-11.3C23.2,12.7,27,7.1,32.4,2.8c2.4-1.9,5.2-3.1,8.4-2.6c0.3,0,0.5,0.1,0.8,0c7.7-0.9,14.6,1.3,21.1,5.2
		c2.8,1.7,5.4,3.5,7.4,6.1c2.2,2.8,2.5,6,1.8,9.3c-0.3,1.5-1.2,2.9-0.8,4.6c0.1,0.5-0.3,1-0.5,1.6c-0.6,1.9-1.5,3.7-2.4,5.4
		c-0.9,1.8-2.1,3.3-3.2,4.9c0.2,0.7,0.7,0.5,1,0.5c8.3,0.2,16.6,0.6,24.9,0.7c6.5,0.1,13-0.2,19.5-0.1c0.5,0,1,0.1,1.4-0.2
		c0.2-0.8-0.2-1.6-0.4-2.4c-0.7-4.1-0.4-8.2,1.2-12c1.3-3.1,2.3-6.4,4.1-9.3c1.5-2.4,3.3-4.5,5-6.7c0.4-0.5,0.9-0.8,1.5-1.1
		c3.2-1.6,6.4-3.1,9.7-4.4c3.8-1.4,7.7-0.8,11.5,0c9.4,2.2,15.6,9.6,16.4,19.2c0.5,5.7-0.5,11-3.4,16c-0.1,0.1,0,0.3-0.1,0.5
		c1.9,0.6,3.8,0.6,5.8,0.8c3.1,0.4,6.2,0.7,9.3,1.4c3.2,0.7,5.9,2.4,8.7,4.1c5.8,3.6,11.1,7.8,16.3,12.2c10.7,9,22.2,17,33.9,24.6
		c0.5,0.3,0.9,0.7,1.4,0.9c2.2,1.2,3.1,3.3,3.4,5.5c0.5,3.5,0.9,7.1,0.4,10.6c-0.4,2.7-1.4,5.1-3.1,7.3c-1,1.2-2.2,2.1-3.8,2.3
		c-0.9,0.1-1.1,0.6-1.1,1.4c0,0.3,0,0.7,0,1c0.1,15.4-0.4,30.7-0.7,46.1c-0.1,6.2-0.4,12.3-0.7,18.5c-0.3,6.6-0.6,13.1-1,19.7
		c-0.5,9.5-1.1,19-1.7,28.5c-0.5,7.8-1.1,15.6-1.6,23.3c-0.6,7.8-1.3,15.7-1.9,23.5c-0.3,3.7-0.5,7.5-0.8,11.3
		c-0.2,2.8-0.8,5.6-1.6,8.2c-2,6.3-4.3,12.4-7.4,18.2c-1.7,3.1-3.8,6-5.8,8.9c-3.1,4.5-6.3,9-10.1,12.9c-2.3,2.5-4.7,4.9-7.5,7
		c-1.9,1.4-4,2.3-6.3,2.9c-6.2,1.5-12.4,2.4-18.9,2.3c-9.3-0.2-18.6,0.4-27.9,0.6c-15.5,0.4-31,1-46.5,0.8
		c-6.2-0.1-12.5-0.3-18.7-0.8c-6.1-0.5-12.2-0.8-18.2-1.2c-2.1-0.2-4.2-0.6-6.3,0c-0.2,0.1-0.6,0-0.8-0.1c-2.8-1.1-5.7-2-8.2-4
		c-2.8-2.2-4.7-4.8-5.9-8.1c-1.1-3.3-1.7-6.7-2.1-10.2c-0.3-3-0.7-6-1.1-9c-0.6-5.4-1.2-10.7-1.9-16.1c-0.6-5.2-1.2-10.5-1.8-15.7
		c-0.6-5-1.3-9.9-1.8-14.8c-0.3-2.4-1.2-4.6-1.5-7c-1.1-7.6-2.3-15.1-3.2-22.7c-0.6-4.8-1.3-9.6-1.8-14.4c-0.6-5.5-1.2-11-1.8-16.5
		c-0.5-4.8-1-9.5-1.5-14.3c-0.5-4.9-1-9.8-1.5-14.7c-0.7-7.3-1.6-14.5-2.3-21.8c-0.5-5.1-1.2-10.2-1.4-15.3c0-1-0.3-1.5-1.3-1.7
		c-1.7-0.4-3-1.6-4.5-2.5c-0.8-0.4-1-1.3-0.9-2.2c0.2-3.3,1.2-6,4.4-7.8c3.1-1.8,6.1-3.7,8.9-5.9c3.6-2.8,7.5-5.3,11.1-8.1
		c5.9-4.4,12.6-7.8,18.6-12C43.6,95.4,44.2,95,45.1,94.4z M227.1,84.5c-0.4,0.2-0.8,0.5-1.1,0.4c-0.8-0.1-1,0.4-1.2,1
		c-1.8,4.5-2.7,9.2-2.7,14c0,0.2,0,0.4,0,0.6c-0.1,0.2,0.1,0.6-0.5,0.6c-1.7-5.8-0.1-11.2,2.4-16.4c-2.9-1.3-4.4-0.7-5.3,2.1
		c-0.4,1-0.7,2.1-0.9,3.2c-0.6,3.1-1.3,6.2-0.9,9.4c0.3,2.1,1,3.4,4,3.2c1.1-0.1,2.2-0.1,3.1,0.8c0.2,0.2,0.5,0.5,0.9,0.1
		c-0.2-0.7-0.4-1.3-0.5-2c-1-6.1-1.1-12.1,3.9-16.8c0.3-0.2,0.8-0.3,0.6-0.7c-0.1-0.4-0.6-0.2-0.8-0.1
		C227.6,84.1,227.4,84.3,227.1,84.5z M72.9,339.7c2.7,0.4,5.5,0.4,8.3,0.3c1.1,0,2.2,0,3.3,0c5.1,0.5,10.1,0.3,15.2,0.2
		c1.2-0.1,2.5-0.1,3.7-0.2c3.6,0.1,7.1,0,10.7-0.1c1.3,0.1,2.5,0.1,3.8-0.1c4.3-0.1,8.7-0.2,13-0.4c0.2,0,0.4-0.1,0.6-0.2
		c1.1,0,2.2,0,3.2-0.1c4.3,0,8.6-0.1,12.8-0.1c0.4,0,0.8-0.1,1.2-0.2c1.2,0,2.4,0,3.7-0.1c4.7,0,9.3-0.1,14-0.1
		c1.3,0.3,2.5-0.2,3.8-0.4c1.8-0.1,3.6-0.3,5.3-0.8c1.1-0.1,2.2-0.3,3.3-0.7c0.6,0,1.1-0.1,1.6-0.4c2.2-1.2,4.5-2.5,6.7-3.7
		c2.7-1.2,4.8-3,6.6-5.2c2.4-2.4,4.5-4.9,6.2-7.8c1.4-1.4,2.4-3.1,3.6-4.7c2-2.7,3.9-5.5,5.4-8.5c1.2-1.9,2.6-3.6,3.3-5.8
		c0.4-0.4,0.6-0.9,0.8-1.4c1.5-3.9,2.6-7.9,3.8-11.9c0.5-1.8,0.9-3.6,1.1-5.4c0.6-7.3,1.1-14.6,1.7-21.9c0.6-8.7,1.2-17.4,1.8-26
		c0.8-11.7,1.6-23.4,2.3-35.1c0.5-7.6,0.9-15.2,1.2-22.8c0.5-11.2,0.9-22.3,1.3-33.5c0.4-11.4,0.6-22.9,0.9-34.3
		c0-0.7,0.1-1.3-0.7-1.6c-0.8-0.3-1.3,0-1.8,0.5c-2.3,2.2-4.7,4.4-7,6.7c-0.2,0.2-0.3,0.4-0.4,0.7c-0.8,0.5-1.4,1.2-2,2
		c-1.5,1.3-2.9,2.8-4.2,4.2c-1,0.9-2,1.8-2.8,2.8c-0.9,0.6-1.6,1.3-2.2,2.1c-1.2,1.7-2.3,3.4-3.7,4.8c-0.8,0.9-2,1.5-2.4,2.8
		c-2.7,1.6-5.4,3.3-8.3,4.6c-0.6,0.1-1.1,0.2-1.6,0.6c-1.7,0.3-3.3,0.7-4.9,1.3c-1-0.1-1.9,0.3-2.9,0.5c-0.7,0.1-1.5,0.1-2.2,0.3
		c-2.8,0.6-5.7-0.3-8.5,0.4c-0.8,0-1.6,0-2.5,0c-5.9-0.4-11.8-0.4-17.7-0.7c-0.8-0.2-1.7-0.2-2.5,0c-0.3,0-0.7-0.1-1-0.1
		c-8.8-0.2-17.5-1.1-26.2-2.1c-3-0.4-6-0.7-9-1c-0.5-0.3-1-0.2-1.5-0.3c-0.3,0-0.5,0-0.8-0.1c-0.3-0.2-0.6-0.3-0.9-0.2
		c-4.8-0.7-9.6-1.5-14.4-1.8c-0.5-0.3-1.1-0.3-1.7-0.2c-4.5-0.6-8.9-0.7-13.5-0.7c0.3-0.3,0.7-0.5,1.1-0.5c1.4-0.2,2.7-0.3,4.1-0.4
		c7.4-0.2,14.6,0.8,21.9,1.7c3.8,0.4,7.6,1.1,11.4,1.5c3.7,0.4,7.5,0.7,11.2,1.1c6.8,0.7,13.5,1,20.3,1.3c5.9,0.3,11.8,0.2,17.7,0.7
		c3.8,0.3,7.6,0.1,11.3-0.3c4.3-0.4,8.5-1.5,12.5-3.2c3.2-1.3,6.3-2.8,8.6-5.4c4.6-5.1,9.4-10,14.3-14.8c0.9-0.9,1.8-1.9,2.8-2.8
		c2.1-1.8,4.2-3.8,6.2-5.7c0.4-0.3,0.9-0.6,0.9-1.3c-1.6-2-4.1-1.1-6-2c-0.1-0.1-0.5,0.2-0.7,0.4c-1.4,1.3-2.9,2.5-4.2,3.9
		c-4.3,4.5-9,8.7-14,12.4c-2.2,1.7-4.2,3.7-6.8,4.9c-5.8,2.7-11.9,4-18.3,4.2c-2.6,0.1-5.2-0.2-7.8-0.3c-7.9-0.4-15.7-0.7-23.6-1
		c-4.5-0.2-9-0.3-13.6-0.5c-7.3-0.3-14.5-0.8-21.8-1.1c-1.3-0.1-2.6,0-3.9-0.1c-7-0.6-14-0.9-20.9-1c-10.5-0.2-21-0.3-31.4-0.5
		c-6-0.1-12.1-0.3-18.1-0.5c-1.1,0-2.2-0.2-3.3-0.2c-4.4,0-8.8-0.6-13.1,0.1c-0.6,0.1-1.1,0.1-1.5-0.4c0.9-0.8,2.1-0.6,3.1-1
		c13.3-0.8,26.7,0.5,40-0.1c-1.1-5.4-1-10.8-1.4-16.2c0-0.7-0.1-1.4,1-1.7c0.2,2,0.4,4,0.5,5.9c0.2,3.5,0.4,7,0.6,10.5
		c0.1,1.5,0.2,1.7,1.7,1.6c4.8,0,9.6,0.1,14.4,0.3c5.4,0.2,10.8,0.1,16.2,0.3c6.9,0.3,13.8,0.5,20.7,0.9c4.7,0.3,9.4,0.5,14.1,0.7
		c7.1,0.4,14.2,0.6,21.3,0.9c3.6,0.2,7.1,0.2,10.7,0.6c1.9,0.2,3.8,0.1,5.7,0.3c6.4,0.8,12.7,0.6,19-0.5c5.3-1,9.9-3.2,14.2-6.5
		c6.8-5.2,13-11.2,19.6-16.6c-1.1-1.8-1.3-3.8-1.4-5.9c0-1.1-0.4-1.4-1.4-1.5c-3.4-0.2-6.8-0.7-10.2-0.7c-7.3-0.2-14.5-0.5-21.8-0.8
		c-4.2-0.2-8.4,0.2-12.5,0.5c-2.5,0.1-5.1,0.3-7.6,0.4c-5.2,0.4-10.4,0.4-15.6,0c-2.9-0.2-5.9-0.6-8.8-1c-3.2-0.4-6.4-0.1-9.6-0.6
		c-0.9-0.1-1.1,0.4-1,1.1c0,1.2,0,2.5-0.4,3.7c-0.2,0.6-0.5,0.9-1.1,1c-1.8,0.3-3.6,0.7-5.5,0.7c-6.8,0-13.6,0-20.4,0
		c-9.5,0.1-18.9-0.3-28.4-0.3c-4.4,0-8.3-1.3-12.1-3.3c-1-1.3-2-2.6-2.5-4.2c-0.3-1.1-1-1.3-2-1.1c-1.8,0.5-3.7,1-5.2,2.2
		c-2.7,2.3-5.8,4.2-8.8,6.1c-4.2,2.8-8.7,5.2-12.5,8.6c-0.6,0.6-1.5,1-2.3,1.4c-3.4,1.9-6.7,3.9-9.9,6.3c-3.8,2.8-7.4,5.9-11.4,8.4
		c-1.3,0.8-2.5,3.7-2.1,4.9c0.6,1.8,1.7,3.1,3.6,3.5c1.3,0.2,2.6,0.5,3.9,0.5c5.3,0.4,10.6-0.5,16-0.6c2.7,0,5.4-0.4,8.1-0.4
		c5.7,0.2,11.4,0.6,17,1c1.9,0.2,3.9,0.1,6.1,0.9c-0.4,0.1-0.6,0.2-0.8,0.2c-5.6,0.4-11.2,0.4-16.8,0.1c-2-0.1-4-0.2-6,0
		c-0.7,0-1.4,0-2.1,0c-3.2,0.1-6.3,0.3-9.5,0.4c-0.4,0-0.8,0-1.2,0c-1.3-0.2-2.5,0.1-3.8,0.2c-0.5,0-1.1,0-1.6,0
		c-1.6,0-3.3-0.1-4.9-0.2c-1.6-0.2-1.8-0.1-1.6,1.6c0.3,2.8,0.6,5.6,0.9,8.4c0.6,5.5,1.3,11,1.9,16.5c0.5,4.4,0.9,8.8,1.4,13.3
		c0.6,6.1,1.3,12.1,1.9,18.2c0.6,5.6,1.1,11.2,1.8,16.7c0.7,6.3,1.5,12.5,2.3,18.7c1,7.5,2,15,3.1,22.6c1,6.8,2.1,13.6,3,20.5
		c1,7.1,1.7,14.3,2.6,21.4c0,0.8,0,1.5,0.1,2.3c0.6,5,1.3,10,1.8,15.1c0.5,4.7,1,9.5,2.5,14.1c1.5,4.3,3.9,7.8,7.4,10.6
		c1.4,2,3.5,2.6,5.8,3c1.1,0.6,2.5,0,3.7,0.7c4,0.5,8,0.5,12,0.8c3,0.2,6,0.3,8.9,0.4C70.8,339.6,71.9,339.6,72.9,339.7z
		 M157.8,72.2c1,0.4,1.7,1.1,2.3,2c1.6,2.4,2.9,5,4.2,7.5c1.4,2.6,2.9,5.1,3.5,8.1c0.2,1,1,1,1.8,1c6.2,0,12.5,0.1,18.7,0.4
		c4.1,0.2,8.2-0.1,12.3-0.2c4.8-0.2,9.5-0.7,14.3-1c0.6,0,1.1-0.3,1.2-0.9c0.4-2.1,1.3-4.1,2.7-6c-0.8-0.4-1.5-0.7-2.1-0.9
		c-3.5-1.4-7-2.8-10.4-4.3c-9.8-4.2-19.5-8.6-29.4-12.8c-3.5-1.5-7.1-2.3-10.9-2.2c-2.4,0-4.8,0.1-7.3-0.4c0.5,0.9,0.3,1.7,0.2,2.5
		C158.3,67.3,157.8,69.7,157.8,72.2c-0.5,0.4-0.3,1-0.4,1.5c-0.4,2.6-0.7,5.1-1.5,7.7c-0.9,3.2-3.1,5.1-6.2,6
		c-2.5,0.7-5.1,1-7.7,0.7c-4.7-0.5-9.3-0.2-14-0.3c-1.4,0-1.5,0.1-1.4,1.4c0,1.3,0.3,1.6,1.7,1.4c1.4-0.2,2.9-0.2,4.3-0.2
		c8.1,0,16.2,0,24.3,0c2.7,0,5.5,0.1,8.2,0.2c1.4,0.1,1.6-0.2,1.2-1.5c-0.5-1.3-1.1-2.7-1.7-4C162.2,80.8,160.2,76.4,157.8,72.2z
		 M8.1,54c1.5,1,3.1,1.4,4.7,1.7c3,0.5,6,0.4,9,0.5c3.2,0,6.5-0.2,9.6,0.4c3.4,0.7,6.8,0.5,10.2,0.6c15.8,0.4,31.7,0.2,47.5,0.2
		c16.9,0,33.7-0.7,50.6,0.8c3.3,0.3,6.7,0.5,10,0.9c5.8,0.7,11.5,1.7,17.4,1.6c1.4,0,2.9,0.2,4.3,0.4c1.3,0.2,2.6,0.4,3.7,1
		c1.5,0.9,3,1.6,4.6,2.2c6.1,2.3,12.1,4.8,18,7.5c8.8,3.9,17.7,7.4,26.4,11.5c0.4,0.2,0.8,0.5,1.2,0.2c1.4-1,3-1.4,4.9-1.8
		c-0.6-0.4-0.8-0.5-1.1-0.6c-9.6-4.8-18.3-11-26.6-17.8c-7.5-6.1-14.9-12.4-22.7-18c-2.9-2-5.9-3.3-9.4-3.7c-3.9-0.5-7.7-1-11.6-1.6
		c-1.9-0.3-3.2,0.2-4.6,1.8c-6.7,7.6-15,11.5-25.4,9.8c-5.5-0.9-10.2-3.5-13.8-7.9c-0.9-1.1-1-2.9-2.7-3.2c-1.4-0.2-2.9,0-4.3,0
		c-0.2,0-0.4,0-0.6,0.1c-6.7,0.2-13.4,0.2-20.1,0C79.6,40.5,71.9,40,64.2,40c-1.1,0-1.8,0.4-2.5,1.1c-1.9,2-4,3.7-6.3,5.2
		c-10.5,7.1-26.5,4.4-32.6-6.4c-0.5-0.8-1.1-1.1-2-1c-1.2,0.1-2.5,0.1-3.7,0.3c-2.1,0.3-4.2,0.4-6.2,1.4c-1,0.5-1.5,1.1-1.5,2.2
		c-0.1,2.3-0.4,4.5-0.3,6.8C9.1,51.1,8.8,52.5,8.1,54z M157.9,62.4c-8.4-1.6-16.9-2.1-25.5-2.5c-8.4-0.3-16.9-0.3-25.3-0.3
		c-4.5,0-8.9,0-13.4,0c-0.8,0-1.1,0.2-1.2,1.1c-0.2,5.7-0.5,11.4-0.7,17c-0.1,3.2-0.6,6.4-0.1,9.6c0.3,1.7,0.4,3.4,0.6,5.1
		c0.2,1.7,0.8,3.4,2.4,4.3c1.5,0.9,3.3,1.5,5,1.6c7.1,0.3,14.2,0.4,21.4,0.5c2.9,0,3.3-0.4,3.5-3.4c0-0.5,0-1,0-1.4
		c0-1.7-0.1-3.4,0-5.1c0-1.5,0.2-2.9-0.6-4.3c-0.4-0.6-0.4-1.4-0.5-2.2c-0.4-2.9-0.2-5.7,0.1-8.6c0.4-3.7,0.8-7.4,2-10.9
		c0.1-0.4,0-1,0.8-1c-0.3,3.3-0.6,6.6-0.9,9.8c-0.3,3.5-0.4,7-0.3,10.5c0.1,1.8,0.9,2.8,2.6,3.2c1.1,0.3,2.2,0.5,3.4,0.3
		c5.3-0.6,10.7-0.2,16-0.4c3.7-0.2,5.9-1.8,6.8-5.4c0.5-2.3,0.9-4.6,1.3-6.9C156,69.5,156.3,65.8,157.9,62.4z M91.7,59.9
		c-0.4-0.4-0.8-0.3-1.2-0.3c-10.7,0-21.4,0-32.1-0.1c-0.3,0-0.5,0-0.8,0c-0.7,0-1,0.4-1,1c0,0.3,0,0.7,0,1c0,7.8,0,15.6,0.4,23.4
		c0.1,2.8,0.8,5.6,1.6,8.2c0.3,0.8,0.6,1.6,1.5,1.9c2.1,0.8,4.2,1.7,6.5,2c7.7,0.9,15.4,1.1,23.2,1c0.6,0,1.2,0.2,1.8-0.4
		c-0.7-2.7-0.9-5.4-1.4-8.1c-0.5-2.8-0.1-5.6,0-8.4C90.3,74.1,90.8,67,91.7,59.9z M42.1,48c3.9,0.1,7.6-0.9,11-3
		c6-3.6,10.5-8.7,13.8-14.9c1.8-3.4,2.9-7.1,3.2-11c0.2-2.9-0.6-5.4-2.8-7.4C62.7,7.4,57.2,4.5,51.1,3c-4.7-1.1-9.4-0.8-14,0.5
		c-4.1,1.2-7.3,3.4-9.7,7c-3.9,5.9-6.3,12.1-5.8,19.3c0.4,4.7,2.1,8.7,5.4,12.1C31.1,46.4,36.3,48,42.1,48z M159,23.9
		c0.1-1.3-0.1-2.6-0.3-3.9C156.8,7.7,145,2.2,135.9,4.3c-4.9,1.1-9.4,3.6-13.6,6.5c-0.3,0.2-0.6,0.5-0.9,0.9
		c-3.4,4.8-6.3,9.8-7.5,15.6c-0.9,4.3-0.7,8.6,1.4,12.6c2.3,4.4,6.1,7.2,10.8,8.7c7.5,2.4,14.6,1.3,21.1-3.3
		C154.5,40.1,159,33.3,159,23.9z M54.8,72.2c0-3.9-0.1-7.6,0.2-11.3c0.1-1.3,0.1-1.4-1.2-1.4c-2.5-0.1-5.1-0.2-7.6-0.3
		c-4.3-0.2-8.6-0.3-12.9-0.5c-1.1-0.1-1.6,0.3-1.8,1.4c-0.3,1.9-0.8,3.7-1.1,5.6c-0.5,3.6-1.1,7.1-0.7,10.7c0.5,4.8,4.1,7.5,8.3,8.4
		c1.7,0.4,3.5,0.6,5.3,0.8c3.3,0.4,6.6,0.9,10,1.2c1.3,0.1,1.4,0,1.4-1.3c0-1-0.3-2.1-0.1-3.1C54.9,79,54.7,75.5,54.8,72.2z
		 M146.6,92c0-0.1,0-0.2,0-0.3c-5.9,0-11.8,0-17.7,0c-0.7,0-1.9-0.5-2,0.3c0,1.1,1.3,0.7,2,0.7c3.3,0,6.6,0.1,9.8,0.5
		c6.7,0.9,13.5,1.3,20.3,0.9c7.1-0.3,14.1-1.1,21.1-1.1c6,0.1,12.1,0.3,18.1,0.5c4.5,0.1,8.9,0.3,13.3,0.8c0.9,0.1,1.8,0.2,2.7,0.3
		c0.7,0.1,1-0.2,1.1-0.9c0-0.3,0-0.7,0.1-1c0.2-1.9,0.2-1.9-1.5-1.3c-0.5,0.2-1.1,0.2-1.6,0.2c-1.8,0.1-3.7,0.2-5.5,0.3
		c-6.5,0.5-13,0.8-19.5,0.5c-8.4-0.3-16.7-0.2-25.1-0.5C157,91.9,151.8,92,146.6,92z M235.1,94.3c0-2.4,0-4.3-0.4-6.2
		c-0.2-1.2-0.8-2.2-1.7-2.9c-1.2-0.9-1.8-0.8-2.9,0c-2.5,1.9-4,4.4-4.5,7.6c-0.5,3.6-0.5,7.2,0.7,10.8c0.5,1.6,0.8,1.7,2.5,1.9
		c2.1,0.3,3.4-0.6,4.3-2.4c0.3-0.6,0.6-1.2,0.9-1.8C235,98.9,235.2,96.4,235.1,94.3z M29.9,58.7c-4.4-1-8.7-0.5-13-0.7
		c-0.5,0-1,0.3-1.2,0.9c4.2,2.3,8.2,4.6,12.5,7C28.7,63.4,29.6,61.2,29.9,58.7z M47.2,88.2c-2.3,0-2.4,0.1-2.4,2.3
		c0,0.5,0.1,1.1,0.2,1.6c0.5,1.6,1,1.8,2.4,0.8c0.3-0.2,0.6-0.5,1-0.7c1.6-1.1,1.6-1.1,1.1-3.1c-0.2-0.7-0.5-0.9-1.1-0.9
		C48,88.3,47.6,88.2,47.2,88.2z M55.5,89c-1.5-0.5-2.8-0.4-4-0.5c-0.7,0-0.6,0.6-0.6,1c0.1,0.4,0,1.1,0.7,0.9
		C52.8,89.9,54.1,90,55.5,89z"/>
	<path class="st1" d="M33.1,134.3c2-0.2,4-0.1,6,0c5.6,0.3,11.2,0.3,16.8-0.1c0.2,0,0.3-0.1,0.8-0.2c-2.1-0.8-4.1-0.8-6.1-0.9
		c-5.7-0.5-11.3-0.9-17-1c-2.7-0.1-5.4,0.3-8.1,0.4c-5.3,0-10.6,0.9-16,0.6c-1.3-0.1-2.6-0.3-3.9-0.5c-2-0.3-3.1-1.6-3.6-3.5
		c-0.4-1.2,0.8-4.1,2.1-4.9c4-2.5,7.6-5.5,11.4-8.4c3.1-2.4,6.4-4.4,9.9-6.3c0.8-0.4,1.6-0.8,2.3-1.4c3.8-3.4,8.3-5.8,12.5-8.6
		c3-2,6-3.8,8.8-6.1c1.5-1.3,3.4-1.7,5.2-2.2c1-0.3,1.7,0,2,1.1c0.5,1.6,1.5,2.9,2.5,4.2c-1.8,1.3-3.7,2.5-5.5,3.8
		c-3,1.3-5.4,3.4-8,5.3c-4.8,3.4-9.3,7.2-14.3,10.3c-0.3,0-0.4,0.1-0.5,0.4l0,0c-0.4,0-0.7,0-0.8,0.5l0,0c-0.4-0.1-0.8-0.1-1.2,0.1
		c-2.4,1.4-5,2.1-7.6,2.9c-1.4,0.4-2.8,1.2-2.7,3.1c-1,0.4-2.2,0.3-3.1,1c0.4,0.5,1,0.5,1.5,0.4c4.4-0.7,8.8-0.1,13.1-0.1
		c1.1,0,2.2,0.2,3.3,0.2c6,0.2,12.1,0.4,18.1,0.5c10.5,0.2,21,0.3,31.4,0.5c7,0.1,14,0.4,20.9,1c1.3,0.1,2.6,0.1,3.9,0.1
		c7.3,0.4,14.5,0.8,21.8,1.1c4.5,0.2,9,0.3,13.6,0.5c7.9,0.3,15.8,0.6,23.6,1c2.6,0.1,5.2,0.4,7.8,0.3c6.4-0.2,12.5-1.5,18.3-4.2
		c2.6-1.2,4.6-3.2,6.8-4.9c5-3.7,9.7-7.9,14-12.4c1.3-1.4,2.8-2.6,4.2-3.9c0.2-0.2,0.5-0.5,0.7-0.4c2,0.8,4.5,0,6,2
		c0,0.7-0.5,1-0.9,1.3c-2,1.9-4.1,3.9-6.2,5.7c-1,0.9-1.8,1.8-2.8,2.8c-4.9,4.8-9.7,9.7-14.3,14.8c-2.3,2.6-5.5,4.1-8.6,5.4
		c-4,1.7-8.2,2.8-12.5,3.2c-3.7,0.4-7.5,0.6-11.3,0.3c-5.9-0.4-11.8-0.4-17.7-0.7c-6.8-0.3-13.5-0.6-20.3-1.3
		c-3.7-0.4-7.5-0.7-11.2-1.1c-3.8-0.4-7.6-1-11.4-1.5c-7.3-0.8-14.5-1.9-21.9-1.7c-1.4,0-2.7,0.2-4.1,0.4c-0.4,0-0.7,0.2-1.1,0.5
		c4.5,0,9,0.1,13.5,0.7c-0.1,0.4-0.3,0.8-0.4,1.2c-1,2.9-0.1,5.8,0.1,8.7c0.4,4.1,0.6,8.1,1,12.2c0.4,3.5,0.7,7.1,0.8,10.6
		c0.2,4.2,0.8,8.3,0.5,12.5c-0.4,0-0.8,0.1-1.2,0.1c-4.8-0.3-9.5-0.3-14.3-0.4c-0.3,0-0.7-0.1-1-0.2c0.2-2.1-0.3-4.1-0.4-6.1
		c-0.1-1.8-0.1-3.7-0.4-5.5c-0.5-2.8-0.7-5.6-0.7-8.3c0-6.5-0.5-13-0.5-19.5c0-0.2,0.1-0.5-0.4-0.8c-0.5,0.5-0.6,1.3-0.8,2
		c-0.7,3.5-1.1,7.1-1.2,10.7c-0.2,5.6,0.3,11.2,0.7,16.8c0.2,3.5,0.7,7.1,0.6,10.6c-4.1,0-8.3,0-12.4-0.4c-0.1-2.5-0.5-4.9-0.9-7.3
		c-0.8-5.3-1.4-10.7-1.8-16c-0.4-4.1-0.7-8.2-0.5-12.3c0.1-2.1,0-4.2,0-6.4c0-0.6,0-1.3-0.9-1.3c-0.9-0.1-1.5,0.2-1.6,1.2
		c0,1.7-0.5,3.4-0.5,5.1c0.2,3.9,0.1,7.8,0.3,11.7c0.3,4.3,0.7,8.6,1,12.8c0.1,1.5,0.3,3,0.5,4.5c0.4,2.6,0.8,5.2,0.7,7.9
		c-3.5,0.1-6.9,0-10.3-0.3c0.2-1.9-0.5-3.8-0.4-5.7c0.1-2.5-0.2-5.1-0.5-7.5c-0.5-4-0.2-7.9-0.6-11.9c-0.4-3.5-0.1-7.1-0.1-10.7
		c0-1.9,0.1-3.8,0.9-5.6c0.2-0.5,0.3-0.9-0.2-1.2c-0.6-0.3-1.1-0.1-1.4,0.4c-0.5,0.8-0.7,1.8-1,2.7c-0.7,2.7-0.6,5.4-0.7,8.1
		c-0.2,5.5-0.2,10.9,0.2,16.4c0.3,3.9,0.6,7.8,0.5,11.7c0,1.1,0.1,2.2,0.4,3.2c-4.3,0.1-8.5,0.3-12.7,0.8c0.1-1.2-0.3-2.3-0.4-3.4
		c-0.1-3.5-0.3-7.1-0.4-10.6c-0.2-8.3-0.1-16.5-0.1-24.8C32.7,138,32.6,136.1,33.1,134.3z"/>
	<path class="st2" d="M17.9,122.8c-0.1-1.9,1.3-2.7,2.7-3.1c2.6-0.8,5.2-1.5,7.6-2.9c0.4-0.2,0.8-0.2,1.2-0.1
		c-1,1.3-2.9,1.6-4.1,3.1c1.8-0.3,2.9-1.2,4.1-1.9c8.1-5.1,15.5-11.2,23.3-16.7c0.3-0.2,0.4-0.5,0.3-0.9c1.8-1.3,3.7-2.5,5.5-3.8
		c3.8,2,7.7,3.3,12.1,3.3c9.5,0,18.9,0.4,28.4,0.3c6.8-0.1,13.6,0,20.4,0c1.9,0,3.7-0.5,5.5-0.7c0.6-0.1,0.9-0.4,1.1-1
		c0.4-1.2,0.5-2.4,0.4-3.7c0-0.7,0.1-1.2,1-1.1c3.2,0.5,6.4,0.2,9.6,0.6c2.9,0.4,5.8,0.8,8.8,1c5.2,0.4,10.4,0.4,15.6,0
		c2.5-0.2,5.1-0.3,7.6-0.4c4.2-0.2,8.3-0.6,12.5-0.5c7.3,0.3,14.5,0.7,21.8,0.8c3.4,0.1,6.8,0.5,10.2,0.7c1.1,0.1,1.4,0.4,1.4,1.5
		c0,2,0.3,4.1,1.4,5.9c-6.7,5.4-12.9,11.4-19.6,16.6c-4.3,3.3-8.9,5.5-14.2,6.5c-6.3,1.1-12.6,1.3-19,0.5c-1.9-0.2-3.8-0.1-5.7-0.3
		c-3.5-0.3-7.1-0.4-10.7-0.6c-7.1-0.3-14.2-0.5-21.3-0.9c-4.7-0.3-9.4-0.5-14.1-0.7c-6.9-0.4-13.8-0.6-20.7-0.9
		c-5.4-0.2-10.8-0.2-16.2-0.3c-4.8-0.2-9.6-0.3-14.4-0.3c-1.5,0-1.6-0.1-1.7-1.6c-0.2-3.5-0.3-7-0.6-10.5c-0.1-1.9-0.3-3.9-0.5-5.9
		c-1.1,0.4-1,1-1,1.7c0.3,5.4,0.3,10.8,1.4,16.2C44.6,123.3,31.2,121.9,17.9,122.8z"/>
	<path class="st1" d="M166.4,338.6c-4.7,0-9.3,0.1-14,0.1c0-1.6,0.2-3.3,0.3-4.9c0.2-3.9,0.2-7.8,0.4-11.7
		c0.4-6.6-0.1-13.3,0.4-19.9c0.4-5,0-10.1,0.4-15.2c0.4-4.9,0-9.8,0.4-14.8c0.4-6.1,0.3-12.2,0.4-18.3c0.2-18.1,0.1-36.2,0.1-54.3
		c0-4.7,0.2-9.4-0.3-14.2c-0.4-3.4-0.2-6.8-0.4-10.2c-0.2-3.2-0.7-6.4-0.5-9.6c0-0.2,0-0.4-0.1-0.6c-0.5-2.9-0.4-5.8-0.7-8.8
		c-0.4-3.1-0.7-6.2-1-9.3c-0.2-2.3-0.8-4.6-0.6-6.9c5.9,0.3,11.8,0.2,17.7,0.7c0,6.8-0.1,13.7,0.7,20.5c0.4,3,0.6,6.1,0.8,9.2
		c0.4,4.6,0.9,9.2,1.2,13.8c0.3,4.3,0.7,8.6,0.8,12.9c0.1,4.7,0.6,9.4,0.5,14.1c-0.1,6.9,0,13.7,0,20.6c0,0.5,0.1,1.1,0,1.6
		c-0.8,3.8-0.3,7.8-0.7,11.6c-0.4,4.6-0.5,9.3-0.9,13.9c-0.3,4.7-0.6,9.4-0.8,14.1c-0.2,4.8-0.5,9.7-0.8,14.5
		c-0.3,4.3-0.6,8.6-0.8,12.9c-0.2,4.1-0.5,8.2-0.8,12.2c-0.3,3.5-0.7,7.1-0.8,10.6C167.1,328.4,166.4,333.5,166.4,338.6z"/>
	<path class="st1" d="M8.1,54c0.7-1.5,0.9-2.9,0.9-4.4c-0.1-2.2,0.2-4.5,0.3-6.8c0.1-1.1,0.6-1.6,1.5-2.2c2-1,4.1-1.1,6.2-1.4
		c1.2-0.2,2.5-0.2,3.7-0.3c0.9-0.1,1.6,0.2,2,1c6.1,10.8,22.1,13.5,32.6,6.4c2.3-1.5,4.4-3.3,6.3-5.2c0.7-0.7,1.4-1.1,2.5-1.1
		c7.7,0,15.5,0.5,23.2,0.7c6.7,0.2,13.4,0.2,20.1,0c0.2,0,0.4,0,0.6-0.1c1.4,0,2.9-0.2,4.3,0c1.6,0.3,1.8,2.1,2.7,3.2
		c3.6,4.4,8.2,6.9,13.8,7.9c10.4,1.8,18.7-2.1,25.4-9.8c1.4-1.6,2.6-2.1,4.6-1.8c3.9,0.6,7.7,1.1,11.6,1.6c3.5,0.4,6.5,1.7,9.4,3.7
		c7.9,5.6,15.3,11.9,22.7,18c8.3,6.8,17,12.9,26.6,17.8c0.2,0.1,0.5,0.3,1.1,0.6c-1.9,0.4-3.5,0.8-4.9,1.8c-0.4,0.3-0.8,0-1.2-0.2
		c-8.7-4.1-17.6-7.6-26.4-11.5c-5.9-2.7-11.9-5.2-18-7.5c-1.6-0.6-3.1-1.3-4.6-2.2c-1.1-0.7-2.5-0.8-3.7-1c-1.4-0.2-2.9-0.4-4.3-0.4
		c-5.9,0.1-11.6-0.9-17.4-1.6c-3.3-0.4-6.7-0.7-10-0.9c-16.8-1.4-33.7-0.7-50.6-0.8c-15.8,0-31.7,0.2-47.5-0.2
		c-3.4-0.1-6.8,0-10.2-0.6c-3.2-0.6-6.4-0.4-9.6-0.4c-3,0-6,0-9-0.5C11.2,55.4,9.7,55,8.1,54z M60.2,51.3c-16-0.2-32-1-48.3-0.2
		c0.5,0.7,1,0.5,1.3,0.5C25.5,52,37.8,51.9,50,52.4C53.4,52.5,56.9,52.3,60.2,51.3z M173.9,57.6c-2.7-1.6-10.7-1.8-12.4-0.4
		C165.7,57.8,169.8,57.8,173.9,57.6z"/>
	<path class="st1" d="M112.5,136.9c3,0.3,6,0.7,9,1c8.7,1,17.4,1.9,26.2,2.1c0.3,0,0.7,0.1,1,0.1c0.1,2.1,0.2,4.2,0.4,6.3
		c0.3,4.4,0.5,8.9,0.9,13.3c0.2,2.9,0.1,5.9,0.4,8.8c0.3,3.1,0.2,6.3,0.4,9.4c0.4,5.2,0.4,10.4,0.4,15.6c0.1,15.3,0.5,30.7-0.2,46
		c-0.4,7.2,0.2,14.4-0.4,21.5c-0.4,5.5,0,11.1-0.4,16.6c-0.5,5.9-0.2,11.9-0.4,17.8c-0.2,10.5-0.8,21.1-0.6,31.6
		c0,0.5,0.1,1.1,0,1.6c-0.7,3.3-0.3,6.7-0.3,10c-0.4,0.1-0.8,0.2-1.2,0.2c-4.3,0.1-8.6,0.1-12.8,0.1c-0.1-3.4,0.5-6.8,0.4-10.2
		c-0.1-13.2,0-26.4,0-39.6c0-0.9,0-1.8-0.1-2.7c1.3,0,2.3-0.6,3.4-1.3c2-1.5,2.3-3.7,2.4-5.8c0.3-6.6,1-13.1,1.8-19.6
		c1.4-10.9,2.9-21.9,3.4-32.9c0.4-10.7,0.9-21.4,0.9-32.1c0-3-0.2-6-1-9c-0.1-0.3-0.3-0.7-0.1-1c1.4-1.4-0.1-1.3-0.8-1.6
		c-0.4-0.2-0.9-0.2-1.4-0.4c-3.1-0.8-6.2-0.9-9.4-1.3c-0.2-3.3-0.6-6.7-0.8-10c-0.2-3.8-0.6-7.6-1-11.4c-0.7-5.8-1.7-11.6-2-17.4
		c0-0.9-0.3-1.9-0.4-2.8c-0.1-0.5-0.4-0.9-0.9-1c-0.6-0.1-0.9,0.3-1.1,0.8c-0.4,0.6-0.4,1.3-0.4,2c-0.2,3.2,0.3,6.4,0.5,9.6
		c0.1,1.5,0.2,3,0.4,4.5c0.4,2.4,0.6,4.7,0.8,7.1c0.1,2.2,0.3,4.4,0.4,6.5c0.3,3.9,0.7,7.9,0.7,11.8c-4.3,0-8.6-0.6-12.9-1
		c-0.4-2.6,0-5.3-0.4-7.9c-0.3-1.9-0.1-3.8-0.3-5.7c-0.4-2.7-0.9-5.4-1.1-8.1c-0.4-4.2-1.3-8.3-2-12.5
		C113.3,143.2,112.4,140.1,112.5,136.9z"/>
	<path class="st1" d="M21.6,134.7c3.2-0.1,6.3-0.3,9.5-0.4c-0.7,3.4-0.9,6.8-0.9,10.2c0,9.2,0.1,18.4,0,27.5c0,3.4,0.7,6.8,0.5,10.2
		c0,0.1,0,0.3,0,0.4c0.4,3.4,0.8,6.9,1.2,10.3c0.3,3.3,0.5,6.7,0.9,10c0.5,4.2,1,8.4,1.3,12.6c0.1,1.6,0.2,3.1,0.4,4.7
		c0.4,2.6,0.6,5.1,0.7,7.7c0.1,2.5,0.4,5,0.5,7.6c0.2,3.3,0.4,6.7,0.8,10c0.3,2.3,0.1,4.7,0.4,6.9c0.5,3.3,0.3,6.7,0.7,10
		c0.3,2.6,0.3,5.3,0.6,8c0.4,4.3,0.7,8.6,1,12.8c0.3,3.8,0.8,7.6,1,11.4c0.1,1.8,0.1,3.7,0.4,5.5c0.4,2.2,0.4,4.5,0.7,6.7
		c0.2,1.8,0.4,3.7,0.6,5.5c0.4,3.2,0.6,6.5,1.1,9.7c0.4,2.6,0.8,5.1,1,7.7c0.3,2.6,1,5.2,1.1,7.9c-2.3-0.4-4.4-1-5.8-3
		c0.1-0.6-0.2-1.2-0.5-1.8c-2.6-6.3-4.3-12.8-5.3-19.5c-0.5-3.3-1-6.6-1.3-9.9c-0.4-3.5-0.7-7-1-10.6c-0.2-2.4-0.5-4.9-0.6-7.3
		c-0.1-1.8-0.1-3.6-0.4-5.3c-0.4-2.3-0.5-4.6-0.7-6.9c-0.2-2.2-0.4-4.5-0.6-6.7c-0.3-3.5-0.8-6.9-1.2-10.3c-0.2-1.6-0.3-3.3-0.5-4.9
		c-0.4-2.8-0.8-5.7-1.1-8.5c-0.3-2.5-0.5-5-0.9-7.5c-0.6-3.8-1.1-7.5-1.5-11.3c-0.3-2.5-0.5-5-0.9-7.5c-0.5-3.6-0.8-7.2-1.2-10.8
		c-0.2-1.8-0.3-3.7-0.5-5.5c-0.3-3.1-0.6-6.2-0.8-9.4c-0.1-2.2-0.2-4.4-0.5-6.5c-0.2-1.8-0.1-3.6-0.4-5.3c-0.5-2.4-0.4-4.8-0.6-7.1
		c-0.2-2.3-0.3-4.6-0.6-6.9c-0.4-3.7-0.8-7.3-1-11c-0.3-4.6-0.8-9.1-0.5-13.7c0.1-1.8,0-3.6,0-5.3c1.2-0.2,2.5-0.4,3.8-0.2
		C20.8,135.2,21.2,135.2,21.6,134.7z"/>
	<path class="st3" d="M157.9,62.4c-1.5,3.4-1.9,7.1-2.6,10.7c-0.4,2.3-0.8,4.6-1.3,6.9c-0.9,3.6-3.1,5.2-6.8,5.4
		c-5.3,0.2-10.7-0.2-16,0.4c-1.2,0.1-2.3,0-3.4-0.3c-1.7-0.5-2.5-1.5-2.6-3.2c-0.1-3.5,0-7,0.3-10.5c0.3-3.3,0.6-6.5,0.9-9.8
		c-0.8,0-0.7,0.6-0.8,1c-1.2,3.5-1.6,7.2-2,10.9c-0.3,2.9-0.5,5.7-0.1,8.6c0.1,0.7,0.1,1.6,0.5,2.2c0.8,1.4,0.7,2.8,0.6,4.3
		c0,1.7,0,3.4,0,5.1c0,0.5,0,1,0,1.4c-0.2,3-0.5,3.4-3.5,3.4c-7.1-0.1-14.3-0.2-21.4-0.5c-1.7-0.1-3.5-0.7-5-1.6
		c-1.6-0.9-2.2-2.6-2.4-4.3c-0.2-1.7-0.3-3.4-0.6-5.1c-0.5-3.2,0.1-6.4,0.1-9.6c0.1-5.7,0.5-11.4,0.7-17c0-1,0.4-1.1,1.2-1.1
		c4.5,0,8.9,0,13.4,0c8.4,0,16.9,0,25.3,0.3C141,60.3,149.5,60.8,157.9,62.4z M121.8,90.3c0.3-1.2,0.2-2.4-0.1-3.6
		c-0.5,1.2-0.5,2.4-0.4,3.6c-0.4,1.8,0.1,3.5,0.5,5.2C121.8,93.8,121.8,92.1,121.8,90.3z M151.1,81c0.9-2.2,2-10.2,1.8-12.1
		C152.2,73.1,151.4,77,151.1,81z"/>
	<path class="st1" d="M171.4,140.9c2.8-0.8,5.7,0.2,8.5-0.4c0.7-0.2,1.5-0.2,2.2-0.3c0.1,0.6,0.4,1.2,0.4,1.8c0.1,4,0.5,8,0.8,12
		c0.3,3.3,0.6,6.7,0.8,10c0.3,4.6,0.5,9.1,0.9,13.7c0.3,3.5,0.3,7.1,0.3,10.6c0.1,8.5,0.5,17.1-0.2,25.7c-0.3,4.1-0.1,8.2-0.4,12.3
		c-0.2,2.9-0.5,5.9-0.6,8.8c-0.1,1.8-0.1,3.6-0.4,5.3c-0.6,3.2-0.6,6.4-1.1,9.5c-0.4,3-0.5,6-1,8.9c-0.6,3.8-0.9,7.6-1.5,11.3
		c-0.6,3.8-0.8,7.7-1.4,11.6c-0.6,4.1-1,8.2-1.5,12.4c-0.5,4.8-1,9.6-1.2,14.5c-0.2,3.7-0.6,7.4-0.5,11.1c0.1,6,0,11.9,0,17.9
		c-1.7,0.5-3.5,0.7-5.3,0.8c-0.2-1.3,0.4-2.6,0.4-3.9c-0.1-2.9,0.4-5.7,0.5-8.6c0.1-2,0.1-4.1,0.4-6.1c0.6-4.5,0.7-9,1.1-13.4
		c0.4-4,0.5-8,0.8-12c0.3-4.9,0.6-9.8,0.8-14.7c0.2-4.8,0.5-9.5,0.8-14.3c0.3-4.8,0.5-9.5,0.9-14.3c0.2-2.6,0.2-5.3,0.3-8
		c0.2-4.3,0.5-8.6,0.5-12.9c-0.1-7.2,0.4-14.4-0.3-21.5c-0.3-3.4-0.1-6.8-0.4-10.2c-0.3-4.1-0.6-8.3-0.9-12.4
		c-0.3-4.2-0.9-8.4-1.2-12.6c-0.4-4.2-1-8.4-1.4-12.6c-0.1-1.5-0.2-3-0.4-4.5c-0.4-2.8-0.6-5.6-0.7-8.3
		C171.2,145.6,171.3,143.2,171.4,140.9z"/>
	<path class="st2" d="M199.7,133.2c0.3-1.3,1.6-1.9,2.4-2.8c0.3,3,0.7,6,0.9,9c0.2,3.5,0.3,7,0.4,10.4c0.2,10.8,0.1,21.5,0.1,32.3
		c0,3.3,0,6.7-0.3,10c-0.4,4.3-0.2,8.7-0.4,13.1c-0.2,3.7-0.5,7.4-0.6,11.1c-0.1,2-0.1,4.1-0.4,6.1c-0.5,3.2-0.4,6.4-0.7,9.6
		c-0.2,2.7-0.5,5.3-0.6,8c-0.1,1.8-0.1,3.6-0.4,5.3c-0.4,2.6-0.5,5.3-0.7,7.9c-0.2,2-0.3,4-0.5,5.9c-0.5,3.5-0.8,7-1,10.6
		c-0.3,3.7-0.7,7.3-1,11c-0.1,1.6-0.1,3.3-0.4,4.9c-0.5,2.8-0.4,5.6-0.7,8.3c-0.2,2.1-0.4,4.2-0.5,6.3c-0.3,3.5-0.7,7.1-0.7,10.6
		c0,0.7,0,1.4,0,2.1c-0.5,4.8-0.7,9.7-0.7,14.5c-1.8,2.2-3.9,4.1-6.6,5.2c-0.7-4.7-0.8-9.4-1.2-14.1c-0.4-4.9,0-9.8-0.5-14.8
		c-0.4-4.1,0.5-8.2,0.4-12.3c-0.1-2.2,0-4.4,0-6.6c0-1.2,0.2-2.3,0.3-3.5c0.2-2.6,0.5-5.2-0.2-7.7c0.1-1.6,0.2-3.1,0.3-4.7
		c0.7-6.2,1.2-12.4,1.6-18.6c0.2-2.5,0.2-4.9,0.4-7.4c0.7-8,1-16.1,1.4-24.2c0.3-5.8,0.2-11.6,0.1-17.5c0-3.1,0.1-6.2,0.1-9.2
		c0.4-0.8,0.2-1.6,0.2-2.4c0-11.4,0.2-22.8-0.3-34.2c-0.3-5.7-0.1-11.5-0.1-17.2c0.5-0.4,1-0.5,1.6-0.6c0.9,2.9,0.6,5.8,0.8,8.7
		c0.3,5.3,0.6,10.6,0.8,15.9c0.2,3.7,0.4,7.5,0.4,11.3c0.1,10,0.1,20,0,30c0,5.8,0.1,11.6-0.3,17.4c-0.3,4.1-0.5,8.3-0.5,12.5
		c0,2.5-0.3,5.1-0.5,7.6c-0.4,4.1-0.7,8.1-1,12.2c-0.4,4.1-0.6,8.3-0.9,12.4c-0.3,4.5-0.5,9-0.8,13.5c-0.3,4.5-0.3,9-0.4,13.5
		c-0.2,8.4-0.1,16.8,0.3,25.2c0.1,2.4,0.6,4.7,0.5,7.1c0,0.2,0.1,0.4,0.5,0.4c0.2-0.2,0.2-0.5,0.2-0.8c-0.1-4.6,0.2-9.2,0.4-13.7
		c0.1-2.7,0.4-5.4,0.6-8.2c0.1-1.9,0-3.8,0.4-5.7c0.4-2.4,0.5-4.8,0.6-7.1c0.2-2.4,0.5-4.9,0.6-7.3c0.1-1.5,0.1-3,0.4-4.5
		c0.4-2.4,0.5-4.7,0.7-7.1c0.1-2.1,0.4-4.2,0.6-6.3c0.1-1.6,0.1-3.1,0.4-4.7c0.4-2.6,0.6-5.1,0.7-7.7c0.1-2,0.3-4.1,0.5-6.1
		c0.5-4.1,0.7-8.1,1-12.2c0.3-3.9,0.6-7.8,0.9-11.6c0.3-4.4,0.5-8.9,0.8-13.3c0.2-2.4,0.1-4.9,0.4-7.4c0.3-3.3,0.3-6.7,0.4-10
		c0.4-12.2-0.2-24.4,0.4-36.6c0.2-3.3,0-6.7-0.3-10C199.9,141.3,200.3,137.2,199.7,133.2z"/>
	<path class="st3" d="M91.7,59.9c-0.9,7.1-1.4,14.2-1.6,21.4c-0.1,2.8-0.4,5.6,0,8.4c0.4,2.7,0.7,5.4,1.4,8.1
		c-0.6,0.6-1.2,0.3-1.8,0.4c-7.7,0.1-15.5-0.1-23.2-1c-2.3-0.3-4.3-1.2-6.5-2c-0.8-0.3-1.2-1.1-1.5-1.9c-0.9-2.7-1.5-5.4-1.6-8.2
		c-0.4-7.8-0.4-15.6-0.4-23.4c0-0.3,0-0.7,0-1c0-0.7,0.3-1,1-1c0.3,0,0.5,0,0.8,0c10.7,0,21.4,0,32.1,0.1
		C90.9,59.6,91.3,59.5,91.7,59.9z"/>
	<path class="st1" d="M208.8,306.4c-1.5,3-3.5,5.8-5.4,8.5c-0.6-0.7-0.5-1.6-0.3-2.4c0.7-2.7,0.4-5.4,0.6-8.2
		c0.4-4.5,0.7-9,0.9-13.5c0.2-5.2,0.5-10.4,0.8-15.5c0.3-4.6,0.5-9.3,0.8-13.9c0.2-4.1,0.5-8.2,0.8-12.2c0.2-3.5,0.6-7.1,0.8-10.6
		c0.3-5.4,0.8-10.7,1.3-16.1c0.4-3.9,0.5-7.8,0.8-11.6c0.3-4.3,0.6-8.6,0.8-12.9c0.3-4.6,0.5-9.3,0.8-13.9c0.2-3.3,0.1-6.5,0.4-9.8
		c0.4-3.6,0.3-7.2,0.4-10.9c0.2-6.3,0.3-12.7-0.2-19.1c-0.4-5-0.5-9.9-0.9-14.9c-0.2-2.9-0.6-5.8-0.6-8.8c1.3-1.5,2.7-2.9,4.2-4.2
		c0.3,3.3,0.5,6.7,0.8,10c0.3,3.6,0,7.2,0.4,10.8c0.3,3,0.2,6,0.4,9c0.3,5.1,0.3,10.2,0.4,15.4c0.2,9.2,0.1,18.4,0.1,27.5
		c0,4.9,0.1,9.8-0.3,14.8c-0.4,4.3-0.2,8.6-0.5,12.9c-0.2,2.8-0.3,5.6-0.6,8.4c-0.4,4.2-0.7,8.4-1,12.6c-0.3,4-0.8,8-1,12
		c-0.1,2-0.2,4.1-0.4,6.1c-0.4,4.5-0.9,8.9-1.1,13.4c-0.1,2.5-0.5,5-0.6,7.6c-0.1,1.7-0.2,3.4-0.4,5.1c-0.4,3.4-0.7,6.9-1.2,10.3
		c-0.3,2-0.3,3.9-0.5,5.9C209.2,300.9,208.6,303.6,208.8,306.4z"/>
	<path class="st3" d="M42.1,48c-5.8-0.1-11.1-1.7-15.2-6c-3.3-3.4-5-7.5-5.4-12.1c-0.6-7.2,1.9-13.4,5.8-19.3c2.4-3.6,5.6-5.8,9.7-7
		c4.6-1.4,9.3-1.7,14-0.5c6.2,1.5,11.6,4.4,16.2,8.8c2.1,2,3,4.5,2.8,7.4c-0.3,3.9-1.4,7.5-3.2,11c-3.3,6.1-7.8,11.2-13.8,14.9
		C49.7,47.1,46.1,48.1,42.1,48z M31.3,25.7c0,0.5,0,1.4,0.2,2.2c0.7,4.4,2.8,7.9,7.1,9.6c4.5,1.8,8.6,1.1,12.2-2.2
		c2.2-2,3.9-4.4,5.3-7c0.8-1.5,1.1-3.1,1.3-4.7C58,17.7,55,13.5,51,9.9c-0.8-0.7-1.7-1.2-2.6-1.7c-3.8-1.8-6.9-1.3-9.9,1.6
		c-1.4,1.4-2.4,3-3.5,4.5C32.4,17.6,31.4,21.3,31.3,25.7z"/>
	<path class="st2" d="M157.8,72.1c0-2.5,0.5-4.9,1-7.3c0.1-0.8,0.3-1.6-0.2-2.5c2.6,0.4,5,0.4,7.3,0.4c3.8-0.1,7.4,0.7,10.9,2.2
		c9.8,4.2,19.6,8.6,29.4,12.8c3.5,1.5,7,2.9,10.4,4.3c0.6,0.3,1.2,0.6,2.1,0.9c-1.3,1.9-2.2,3.8-2.7,6c-0.1,0.6-0.6,0.9-1.2,0.9
		c-4.8,0.3-9.5,0.8-14.3,1c-4.1,0.1-8.2,0.4-12.3,0.2c-6.2-0.3-12.5-0.3-18.7-0.4c-0.8,0-1.6,0.1-1.8-1c-0.6-2.9-2.1-5.5-3.5-8.1
		c-1.4-2.5-2.6-5.1-4.2-7.5C159.4,73.2,158.7,72.6,157.8,72.1L157.8,72.1z"/>
	<path class="st1" d="M69.7,339.5c-3-0.1-6-0.2-8.9-0.4c-4-0.3-8-0.3-12-0.8c0-0.4,0-0.8-0.1-1.2c-1-4.2-1.4-8.6-2-12.9
		c-0.4-2.6-0.7-5.3-0.9-7.9c-0.2-3-0.9-6.1-1.1-9.1c-0.3-3.8-0.8-7.6-1-11.4c-0.1-1.7-0.2-3.4-0.4-5.1c-0.4-3.2-0.9-6.5-0.7-9.8
		c0.2,0.2,0.4,0.4,0.6,0.5c0.6,0.4,0.6,1.5,1.1,1.6c0.5,0.1,1.2-0.1,1.8,0.1c2.1,0.7,4.2,0.8,6.4,1c-0.2,1.5,0.5,2.8,0.4,4.3
		c-0.2,2.5,0.3,5,0.5,7.6c0.1,1.8,0.1,3.7,0.4,5.5c0.4,3.2,0.5,6.4,0.8,9.6c0.2,2.2,0.3,4.5,0.5,6.7c0.4,4.2,0.8,8.4,0.7,12.7
		c0,1.4,0.2,2.7,0.4,4.1c0.1,0.7,0.3,1.3,1,1.3c0.8,0,1-0.6,1.1-1.2c0.4-1.5,0.7-2.9,0.7-4.4c0.2-4.5-0.4-8.9-0.5-13.3
		c-0.1-2-0.1-4-0.4-5.9c-0.5-2.8-0.4-5.6-0.7-8.4c-0.2-2.6-0.4-5.2-0.6-7.8c-0.2-3.5-0.7-6.9-0.8-10.4c3.6,0,7.2,0,10.7,0.5
		c0,2.8,0.2,5.6,0.3,8.4c0.2,4.8,0.8,9.5,0.5,14.3c0,0.3,0,0.6,0,0.8c0.7,4,0.3,8.2,0.7,12.2c0.3,3.1,0.7,6.2,0.5,9.4
		c0,0.1,0,0.3,0,0.4C69.4,333.4,69.4,336.5,69.7,339.5z"/>
	<path class="st3" d="M159,23.9c0.1,9.4-4.5,16.2-11.8,21.4c-6.4,4.6-13.6,5.7-21.1,3.3c-4.6-1.5-8.4-4.3-10.8-8.7
		c-2.1-4-2.2-8.3-1.4-12.6c1.2-5.8,4-10.9,7.5-15.6c0.2-0.3,0.5-0.6,0.9-0.9c4.2-2.9,8.7-5.4,13.6-6.5c9.1-2.1,20.9,3.4,22.7,15.7
		C158.8,21.3,159,22.6,159,23.9z M146.7,21.6c0-1.8,0-3.7-0.5-5.6c-1.2-4.4-4.4-7.3-8.7-7.4c-3-0.1-5.8,0.7-8.1,2.9
		c-0.8,0.8-1.6,1.5-2.3,2.3c-3.5,3.8-5.8,8.3-6.6,13.5c-0.7,4.4,1,8,4.7,10.1c2.8,1.6,5.7,2,8.9,1.5
		C139.9,38.1,148.1,29.7,146.7,21.6z"/>
	<path class="st1" d="M199.7,133.2c0.6,4,0.2,8.1,0.5,12.1c0.3,3.4,0.4,6.7,0.3,10c-0.7,12.2,0,24.4-0.4,36.6
		c-0.1,3.3-0.1,6.7-0.4,10c-0.3,2.5-0.1,4.9-0.4,7.4c-0.4,4.4-0.5,8.9-0.8,13.3c-0.3,3.9-0.5,7.8-0.9,11.6c-0.3,4.1-0.5,8.2-1,12.2
		c-0.2,2-0.5,4.1-0.5,6.1c-0.1,2.6-0.3,5.2-0.7,7.7c-0.2,1.5-0.2,3.1-0.4,4.7c-0.2,2.1-0.5,4.2-0.6,6.3c-0.2,2.4-0.2,4.8-0.7,7.1
		c-0.3,1.5-0.3,3-0.4,4.5c-0.2,2.4-0.4,4.9-0.6,7.3c-0.2,2.4-0.2,4.8-0.6,7.1c-0.4,1.9-0.3,3.8-0.4,5.7c-0.2,2.7-0.5,5.4-0.6,8.2
		c-0.2,4.6-0.5,9.1-0.4,13.7c0,0.3,0,0.6-0.2,0.8c-0.4,0-0.5-0.2-0.5-0.4c0.1-2.4-0.4-4.8-0.5-7.1c-0.4-8.4-0.5-16.8-0.3-25.2
		c0.1-4.5,0.1-9,0.4-13.5c0.3-4.5,0.5-9,0.8-13.5c0.3-4.2,0.5-8.3,0.9-12.4c0.4-4.1,0.6-8.1,1-12.2c0.2-2.5,0.5-5,0.5-7.6
		c0-4.2,0.3-8.3,0.5-12.5c0.4-5.8,0.2-11.6,0.3-17.4c0.1-10,0.1-20,0-30c0-3.8-0.2-7.5-0.4-11.3c-0.3-5.3-0.5-10.6-0.8-15.9
		c-0.2-2.9,0.1-5.9-0.8-8.7C194.3,136.5,197,134.8,199.7,133.2z"/>
	<path class="st1" d="M193.6,327.4c0-4.8,0.3-9.7,0.7-14.5c0.1-0.7,0-1.4,0-2.1c0-3.6,0.5-7.1,0.7-10.6c0.2-2.1,0.3-4.2,0.5-6.3
		c0.3-2.8,0.3-5.6,0.7-8.3c0.3-1.6,0.3-3.3,0.4-4.9c0.3-3.7,0.7-7.3,1-11c0.3-3.5,0.6-7.1,1-10.6c0.3-1.9,0.3-3.9,0.5-5.9
		c0.3-2.6,0.3-5.3,0.7-7.9c0.3-1.7,0.3-3.5,0.4-5.3c0.2-2.7,0.4-5.3,0.6-8c0.2-3.2,0.2-6.4,0.7-9.6c0.3-2,0.3-4.1,0.4-6.1
		c0.1-3.7,0.4-7.4,0.6-11.1c0.2-4.4,0.1-8.8,0.4-13.1c0.3-3.4,0.3-6.7,0.3-10c0-10.8,0.1-21.5-0.1-32.3c-0.1-3.5-0.2-7-0.4-10.4
		c-0.2-3-0.6-6-0.9-9c1.4-1.5,2.5-3.2,3.7-4.8c0.6-0.8,1.3-1.6,2.2-2.1c0,2.5,0.2,5.1,0.5,7.5c0.5,4.1,0.4,8.2,0.6,12.3
		c0.3,6.9,0.5,13.8-0.2,20.7c-0.3,3.6-0.2,7.2-0.4,10.8c-0.3,5.4-0.5,10.8-0.9,16.1c-0.3,4.3-0.6,8.6-0.8,12.9
		c-0.2,3.5-0.7,6.9-0.5,10.4c0,0.3,0,0.5,0,0.8c-0.6,4.7-0.7,9.4-1.2,14c-0.3,2.3-0.3,4.6-0.5,6.9c-0.3,4.1-0.9,8.3-1.1,12.4
		c-0.2,3.9-0.6,7.9-0.8,11.8c-0.3,4.8-0.7,9.7-0.8,14.5c-0.1,4.5-0.7,9-0.5,13.5c0,0.2,0,0.4,0,0.6c-0.7,4-0.4,8-0.7,12
		c-0.3,3.3-0.7,6.7-0.5,10c0,0.1,0,0.3,0,0.4c-0.6,2.7-0.3,5.4-0.3,8.2C198.1,322.4,195.9,325,193.6,327.4z"/>
	<path class="st1" d="M99.7,340.2c-5.1,0.1-10.1,0.3-15.2-0.2c0-0.9,0.1-1.8-0.1-2.7c-0.7-3.5-0.9-7-1.1-10.5
		c-0.3-5.2-0.3-10.4-0.4-15.6c-0.2-8.5-0.1-17.1-0.1-25.7c5.2,0,10.4,0.1,15.7,0.5c0,13.8-0.1,27.5,0.4,41.3c0,0.3,0,0.5,0,0.8
		C99.4,332.2,99.9,336.2,99.7,340.2z"/>
	<path class="st1" d="M216.9,114.4c0.1-0.3,0.2-0.5,0.4-0.7c2.3-2.2,4.7-4.4,7-6.7c0.5-0.5,0.9-0.9,1.8-0.5c0.9,0.3,0.8,0.9,0.7,1.6
		c-0.3,11.4-0.5,22.9-0.9,34.3c-0.3,11.2-0.8,22.3-1.3,33.5c-0.3,7.6-0.7,15.2-1.2,22.8c-0.7,11.7-1.5,23.4-2.3,35.1
		c-0.6,8.7-1.2,17.4-1.8,26c-0.5,7.3-1.1,14.6-1.7,21.9c-0.1,1.8-0.5,3.7-1.1,5.4c-1.2,4-2.3,8-3.8,11.9c-0.2,0.5-0.4,1-0.8,1.4
		c0-0.5-0.1-1,0-1.4c0.9-5.7,1.4-11.4,2.1-17c0.2-1.7,0.2-3.4,0.4-5.1c0.4-2.5,0.5-5,0.7-7.5c0.2-2.3,0.3-4.6,0.6-6.9
		c0.4-4.1,0.6-8.2,1.1-12.2c0.3-3,0.6-6.1,0.8-9.2c0.5-5.2,0.8-10.5,1.3-15.7c0.4-4,0.5-8,0.8-12c0.3-4.2,0.3-8.5,0.4-12.7
		c0.2-16.5,0.2-33-0.3-49.5c0-0.3,0-0.7,0-1c-0.7-3.8-0.4-7.8-0.7-11.6c-0.3-3.7-0.7-7.4-0.5-11.1c0-0.1,0-0.3,0-0.4
		c-0.5-3-0.5-6.1-0.7-9.2C217.8,116.7,217.6,115.5,216.9,114.4z"/>
	<path class="st2" d="M148.7,338.9c0.1-3.3-0.3-6.7,0.3-10c0.1-0.5,0-1.1,0-1.6c-0.3-10.5,0.3-21.1,0.6-31.6
		c0.1-5.9-0.1-11.9,0.4-17.8c0.4-5.5,0-11.1,0.4-16.6c0.6-7.2,0-14.4,0.4-21.5c0.8-15.3,0.3-30.7,0.2-46c0-5.2,0-10.4-0.4-15.6
		c-0.2-3.1,0-6.3-0.4-9.4c-0.3-2.9-0.2-5.9-0.4-8.8c-0.4-4.4-0.6-8.8-0.9-13.3c-0.1-2.1-0.2-4.2-0.4-6.3c0.8-0.1,1.7-0.1,2.5,0
		c-0.1,2.3,0.4,4.6,0.6,6.9c0.3,3.1,0.6,6.2,1,9.3c0.4,2.9,0.2,5.9,0.7,8.8c0,0.2,0.1,0.4,0.1,0.6c-0.2,3.2,0.3,6.4,0.5,9.6
		c0.2,3.4,0,6.9,0.4,10.2c0.5,4.7,0.3,9.4,0.3,14.2c0.1,18.1,0.2,36.2-0.1,54.3c-0.1,6.1,0,12.2-0.4,18.3c-0.3,4.9,0,9.9-0.4,14.8
		c-0.4,5.1,0,10.1-0.4,15.2c-0.6,6.6,0,13.3-0.4,19.9c-0.2,3.9-0.2,7.8-0.4,11.7c-0.1,1.6-0.3,3.3-0.3,4.9
		C151.2,338.8,150,338.8,148.7,338.9z"/>
	<path class="st1" d="M131.5,339.3c-0.2,0.1-0.4,0.2-0.6,0.2c-4.3,0.1-8.7,0.2-13,0.4c-0.2-4.6,0-9.3-0.4-13.9c-0.4-6-0.2-12-0.4-18
		c-0.3-7.3-0.1-14.6-0.1-21.9c4.6-0.1,9.2,0.5,13.8,0.8c0.1,0,0.1,0,0.2,0.1c0,4.2-0.1,8.5,0,12.7
		C131.2,312.9,130.6,326.1,131.5,339.3z"/>
	<path class="st2" d="M171.4,140.9c0,2.3-0.1,4.7,0,7c0.1,2.8,0.3,5.6,0.7,8.3c0.2,1.5,0.3,3,0.4,4.5c0.4,4.2,1,8.4,1.4,12.6
		c0.4,4.2,0.9,8.4,1.2,12.6c0.3,4.1,0.5,8.3,0.9,12.4c0.3,3.4,0,6.8,0.4,10.2c0.7,7.2,0.2,14.4,0.3,21.5c0,4.3-0.3,8.6-0.5,12.9
		c-0.1,2.7-0.1,5.3-0.3,8c-0.4,4.8-0.6,9.5-0.9,14.3c-0.3,4.8-0.6,9.5-0.8,14.3c-0.2,4.9-0.5,9.8-0.8,14.7c-0.3,4-0.4,8-0.8,12
		c-0.4,4.5-0.5,9-1.1,13.4c-0.3,2-0.3,4.1-0.4,6.1c-0.2,2.9-0.7,5.7-0.5,8.6c0.1,1.3-0.6,2.5-0.4,3.9c-1.2,0.2-2.5,0.6-3.8,0.4
		c0-5.1,0.7-10.2,0.9-15.3c0.1-3.5,0.5-7.1,0.8-10.6c0.3-4.1,0.6-8.2,0.8-12.2c0.3-4.3,0.6-8.6,0.8-12.9c0.3-4.8,0.6-9.7,0.8-14.5
		c0.2-4.7,0.5-9.4,0.8-14.1c0.3-4.6,0.4-9.3,0.9-13.9c0.4-3.9-0.2-7.8,0.7-11.6c0.1-0.5,0-1.1,0-1.6c0-6.9,0-13.7,0-20.6
		c0-4.7-0.4-9.4-0.5-14.1c-0.1-4.3-0.5-8.6-0.8-12.9c-0.3-4.6-0.9-9.2-1.2-13.8c-0.2-3.1-0.5-6.1-0.8-9.2
		c-0.8-6.8-0.8-13.6-0.7-20.5C169.7,140.9,170.5,140.9,171.4,140.9z"/>
	<path class="st1" d="M94.8,134.5c4.8,0.3,9.6,1.1,14.4,1.8c0.3,0.4,0.6,0.4,0.9,0.2c0.3,0,0.5,0,0.8,0.1c-0.2,0.7-0.5,1.4-0.6,2.2
		c-0.1,3,0.2,5.9,0.7,8.8c0.5,3.2,1.1,6.3,1.3,9.5c0.3,3.5,0.7,7.1,1,10.6c0.3,4.2,0.4,8.4,0.7,12.7c-5.2-0.3-10.4-0.5-15.6-0.8
		c0-2.1-0.3-4.2-0.3-6.3c-0.1-4.6-0.8-9.1-1-13.7c-0.1-1.6-0.2-3.3-0.5-4.9c-0.3-2-0.5-4-0.7-6.1c-0.1-1.8-0.4-3.7-0.5-5.5
		C95.3,140.2,94.8,137.4,94.8,134.5z"/>
	<path class="st2" d="M199.8,319.6c-0.1-2.7-0.4-5.5,0.3-8.2c0-0.1,0-0.3,0-0.4c-0.2-3.4,0.2-6.7,0.5-10c0.3-4,0-8.1,0.7-12
		c0-0.2,0-0.4,0-0.6c-0.2-4.5,0.4-9,0.5-13.5c0.2-4.8,0.5-9.7,0.8-14.5c0.2-3.9,0.6-7.9,0.8-11.8c0.2-4.1,0.8-8.3,1.1-12.4
		c0.2-2.3,0.2-4.6,0.5-6.9c0.5-4.7,0.6-9.4,1.2-14c0-0.3,0.1-0.5,0-0.8c-0.2-3.5,0.4-7,0.5-10.4c0.2-4.3,0.5-8.6,0.8-12.9
		c0.3-5.4,0.5-10.8,0.9-16.1c0.2-3.6,0-7.3,0.4-10.8c0.7-6.9,0.5-13.8,0.2-20.7c-0.2-4.1,0-8.2-0.6-12.3c-0.3-2.5-0.6-5-0.5-7.5
		c0.8-1.1,1.8-2,2.8-2.8c-0.1,2.9,0.3,5.9,0.6,8.8c0.4,5,0.5,10,0.9,14.9c0.5,6.4,0.4,12.7,0.2,19.1c-0.1,3.6,0,7.3-0.4,10.9
		c-0.3,3.3-0.2,6.6-0.4,9.8c-0.3,4.6-0.6,9.3-0.8,13.9c-0.2,4.3-0.6,8.6-0.8,12.9c-0.3,3.9-0.4,7.8-0.8,11.6
		c-0.5,5.4-0.9,10.7-1.3,16.1c-0.2,3.5-0.6,7.1-0.8,10.6c-0.3,4.1-0.6,8.2-0.8,12.2c-0.3,4.6-0.6,9.3-0.8,13.9
		c-0.3,5.2-0.6,10.4-0.8,15.5c-0.2,4.5-0.4,9-0.9,13.5c-0.3,2.7,0,5.5-0.6,8.2c-0.2,0.7-0.3,1.6,0.3,2.4
		C202.3,316.5,201.2,318.2,199.8,319.6z"/>
	<path class="st2" d="M175.4,337.5c0-6,0.1-11.9,0-17.9c-0.1-3.7,0.4-7.4,0.5-11.1c0.2-4.8,0.7-9.7,1.2-14.5
		c0.4-4.1,0.8-8.3,1.5-12.4c0.6-3.8,0.8-7.7,1.4-11.6c0.6-3.8,0.8-7.6,1.5-11.3c0.5-2.9,0.5-6,1-8.9c0.5-3.2,0.5-6.4,1.1-9.5
		c0.3-1.7,0.3-3.5,0.4-5.3c0.1-2.9,0.4-5.9,0.6-8.8c0.3-4.1,0.1-8.2,0.4-12.3c0.7-8.6,0.3-17.1,0.2-25.7c0-3.5-0.1-7.1-0.3-10.6
		c-0.3-4.6-0.5-9.1-0.9-13.7c-0.2-3.3-0.5-6.7-0.8-10c-0.3-4-0.7-8-0.8-12c0-0.6-0.2-1.2-0.4-1.8c1-0.2,1.9-0.6,2.9-0.5
		c0,1.8-0.2,3.7,0.1,5.5c0.5,3.6,0.7,7.3,1.1,10.9c0.3,3.4,0.7,6.9,1,10.3c0.3,3.9,0.6,7.7,0.8,11.6c0.2,3.3,0.4,6.5,0.4,9.8
		c0,0.2,0.2,0.5,0.3,0.7c0,0.8,0.1,1.5,0.1,2.3c-0.1,8.9,0.2,17.8-0.4,26.7c-0.1,1.7,0,3.4-0.1,5.1c-0.2,3.1-0.4,6.1-0.6,9.2
		c-0.2,3.8-0.4,7.6-0.5,11.5c0,0.4-0.1,0.8-0.3,1.2c-0.7,1.1-0.6,2.2-0.1,3.3c0.1,0.4,0.1,0.9-0.1,1.3c-0.9-0.4-0.6,0.3-0.7,0.7
		c-0.3,3-0.6,6.1-0.9,9.1c-0.5,4.1-1,8.1-1.6,12.1c-0.3,2.5-0.6,5-0.9,7.5c-0.4,2.9-0.9,5.8-1.1,8.7c-0.3,3.3-0.6,6.6-1,10
		c-0.4,3.9-0.8,7.9-1,11.8c-0.3,4.4-0.7,8.9-0.5,13.3c0.1,4.8,0,9.6,0,14.4C177.7,337.2,176.5,337.3,175.4,337.5z"/>
	<path class="st3" d="M54.8,72.2c-0.1,3.3,0.1,6.7-0.2,10.2c-0.1,1,0.1,2,0.1,3.1c0,1.3-0.1,1.4-1.4,1.3c-3.3-0.4-6.7-0.8-10-1.2
		c-1.8-0.2-3.5-0.4-5.3-0.8c-4.1-1-7.7-3.6-8.3-8.4c-0.4-3.7,0.1-7.2,0.7-10.7c0.3-1.9,0.8-3.8,1.1-5.6c0.2-1.1,0.7-1.5,1.8-1.4
		c4.3,0.2,8.6,0.3,12.9,0.5c2.5,0.1,5.1,0.2,7.6,0.3c1.3,0.1,1.3,0.1,1.2,1.4C54.7,64.6,54.8,68.3,54.8,72.2z"/>
	<path class="st2" d="M16.6,135c0,1.8,0.1,3.6,0,5.3c-0.2,4.6,0.3,9.2,0.5,13.7c0.2,3.7,0.6,7.3,1,11c0.3,2.3,0.4,4.6,0.6,6.9
		c0.2,2.4,0.2,4.8,0.6,7.1c0.3,1.7,0.2,3.5,0.4,5.3c0.2,2.2,0.4,4.3,0.5,6.5c0.2,3.1,0.5,6.2,0.8,9.4c0.2,1.8,0.3,3.7,0.5,5.5
		c0.4,3.6,0.6,7.2,1.2,10.8c0.4,2.5,0.6,5,0.9,7.5c0.5,3.8,0.9,7.6,1.5,11.3c0.4,2.5,0.6,5,0.9,7.5c0.4,2.8,0.8,5.7,1.1,8.5
		c0.2,1.6,0.3,3.3,0.5,4.9c0.4,3.4,0.9,6.9,1.2,10.3c0.2,2.2,0.4,4.5,0.6,6.7c0.2,2.3,0.3,4.6,0.7,6.9c0.3,1.7,0.3,3.5,0.4,5.3
		c0.1,2.5,0.4,4.9,0.6,7.3c0.3,3.5,0.6,7,1,10.6c0.4,3.3,0.8,6.6,1.3,9.9c1.1,6.7,2.7,13.2,5.3,19.5c0.2,0.6,0.5,1.1,0.5,1.8
		c-3.5-2.8-5.9-6.3-7.4-10.6c-1.6-4.6-2-9.3-2.5-14.1c-0.6-5-1.2-10-1.8-15.1c-0.1-0.7-0.1-1.5-0.1-2.3c0.7-1.6,0.5-3.3,0.2-4.8
		c-0.4-2.2-0.4-4.5-0.6-6.7c-0.3-3.7-0.7-7.3-1-11c-0.1-1.7-0.2-3.4-0.4-5.1c-0.4-3.2-0.8-6.5-1.1-9.7c-0.3-2.8-0.5-5.6-0.9-8.3
		c-0.8-4.8-1.2-9.6-1.9-14.4c-0.5-3.6-0.8-7.3-1.3-11c-0.6-4.7-1.3-9.4-1.6-14.2c-0.1-1.6-0.2-3.3-0.5-4.9c-0.4-2.4-0.4-4.8-0.6-7.1
		c-0.2-2.9-0.5-5.9-0.6-8.8c-0.1-1.9,0-3.8-0.4-5.7c-0.5-2.5-0.4-5-0.6-7.5c-0.2-2.6-0.4-5.2-0.6-7.8c-0.1-2,0-4.1-0.4-6.1
		c-0.5-3-0.3-6.1-0.7-9.2c-0.3-2.6-0.2-5.4,0-8c0.2-2.4,0.1-4.9,0.8-7.3C15.5,135,16.1,135,16.6,135z"/>
	<path class="st1" d="M114.1,339.9c-3.6,0.1-7.1,0.3-10.7,0.1c0.2-3.2-0.2-6.4-0.5-9.6c-0.4-3.9,0.1-7.9-0.6-11.8
		c-0.2-1.2-0.1-2.5,0-3.7c0.2-9.6-0.5-19.3-0.4-28.9c3.8-0.5,7.7-0.3,11.5-0.2c0,0.5,0,1.1,0,1.6c0.2,11.9-0.3,23.8,0.3,35.7
		C113.9,328.7,114.4,334.3,114.1,339.9z"/>
	<path class="st2" d="M216.9,114.4c0.7,1.1,0.8,2.2,0.9,3.5c0.3,3.1,0.2,6.1,0.7,9.2c0,0.1,0,0.3,0,0.4c-0.2,3.7,0.2,7.4,0.5,11.1
		c0.3,3.9,0,7.8,0.7,11.6c0.1,0.3,0,0.7,0,1c0.5,16.5,0.6,33,0.3,49.5c-0.1,4.2-0.1,8.5-0.4,12.7c-0.3,4-0.4,8-0.8,12
		c-0.5,5.2-0.8,10.5-1.3,15.7c-0.3,3.1-0.5,6.1-0.8,9.2c-0.4,4.1-0.6,8.2-1.1,12.2c-0.3,2.3-0.4,4.6-0.6,6.9c-0.2,2.5-0.3,5-0.7,7.5
		c-0.3,1.7-0.2,3.4-0.4,5.1c-0.7,5.7-1.2,11.4-2.1,17c-0.1,0.5,0,1,0,1.4c-0.7,2.1-2.1,3.9-3.3,5.8c-0.2-2.7,0.3-5.4,0.6-8.1
		c0.2-2,0.3-3.9,0.5-5.9c0.5-3.4,0.8-6.9,1.2-10.3c0.2-1.7,0.3-3.4,0.4-5.1c0.1-2.5,0.4-5,0.6-7.6c0.2-4.5,0.8-9,1.1-13.4
		c0.2-2,0.3-4.1,0.4-6.1c0.2-4,0.7-8,1-12c0.3-4.2,0.6-8.4,1-12.6c0.3-2.8,0.4-5.6,0.6-8.4c0.3-4.3,0.1-8.6,0.5-12.9
		c0.4-4.9,0.3-9.8,0.3-14.8c0.1-9.2,0.2-18.4-0.1-27.5c-0.1-5.1-0.1-10.3-0.4-15.4c-0.2-3,0-6-0.4-9c-0.4-3.6-0.1-7.2-0.4-10.8
		c-0.3-3.3-0.5-6.7-0.8-10C215.5,115.7,216.2,115,216.9,114.4z"/>
	<path class="st2" d="M42.6,280.9c-0.2,3.3,0.3,6.5,0.7,9.8c0.2,1.7,0.3,3.4,0.4,5.1c0.2,3.8,0.7,7.6,1,11.4c0.2,3,0.9,6.1,1.1,9.1
		c0.2,2.7,0.5,5.3,0.9,7.9c0.6,4.3,0.9,8.7,2,12.9c0.1,0.4,0.1,0.8,0.1,1.2c-1.1-0.7-2.5,0-3.7-0.7c-0.1-2.7-0.8-5.2-1.1-7.9
		c-0.3-2.6-0.6-5.1-1-7.7c-0.5-3.2-0.7-6.5-1.1-9.7c-0.2-1.8-0.4-3.7-0.6-5.5c-0.3-2.2-0.2-4.5-0.7-6.7c-0.3-1.8-0.3-3.7-0.4-5.5
		c-0.2-3.8-0.7-7.6-1-11.4c-0.4-4.3-0.6-8.6-1-12.8c-0.3-2.6-0.3-5.3-0.6-8c-0.4-3.3-0.1-6.7-0.7-10c-0.4-2.3-0.2-4.6-0.4-6.9
		c-0.4-3.3-0.6-6.7-0.8-10c-0.2-2.5-0.4-5-0.5-7.6c-0.1-2.6-0.4-5.2-0.7-7.7c-0.2-1.5-0.3-3.1-0.4-4.7c-0.3-4.2-0.8-8.4-1.3-12.6
		c-0.4-3.3-0.6-6.7-0.9-10c-0.3-3.5-0.8-6.9-1.2-10.3c0-0.1,0-0.3,0-0.4c0.2-3.4-0.5-6.8-0.5-10.2c0.1-9.2,0-18.4,0-27.5
		c0-3.4,0.2-6.8,0.9-10.2c0.7,0,1.4,0,2.1,0c-0.5,1.8-0.4,3.6-0.4,5.5c0,8.3-0.1,16.6,0.1,24.8c0.1,3.5,0.2,7.1,0.4,10.6
		c0,1.1,0.5,2.3,0.4,3.4c-1,0.4-1.6,0.9-0.7,1.9c0.3,0.3,0.3,0.8,0.3,1.2c-0.2,5.4,0.6,10.6,1.3,15.9c0.7,5.7,1.5,11.4,2.2,17.1
		c0.6,5.1,1.3,10.2,1.8,15.3c0.6,5,1.1,10.1,1.5,15.1c0.2,2.8,0.7,5.6,0.5,8.4c-0.2,3.9,0.2,7.7,0.5,11.6c0.1,2,0.2,3.9,0.4,5.9
		c0.3,3,0.6,6.1,0.8,9.1C42.3,280.3,42.4,280.6,42.6,280.9z"/>
	<path class="st1" d="M81.2,340c-2.8,0.1-5.5,0.1-8.3-0.3c0.4-3.2-0.4-6.4-0.3-9.6c0.1-3.8-0.7-7.5-0.4-11.2c0-0.1,0-0.1,0-0.2
		c-0.7-4.5-0.4-9-0.8-13.5c-0.2-2.6-0.2-5.2-0.3-7.8c-0.2-4.2-0.8-8.3-0.5-12.5c3-0.1,6,0.3,9,0.5c0.2,13-0.3,26.1,0.4,39.1
		C80.2,329.7,80.5,334.9,81.2,340z"/>
	<path class="st1" d="M15,135.1c-0.7,2.4-0.6,4.9-0.8,7.3c-0.2,2.7-0.3,5.4,0,8c0.3,3.1,0.1,6.1,0.7,9.2c0.3,2,0.3,4.1,0.4,6.1
		c0.2,2.6,0.4,5.2,0.6,7.8c0.2,2.5,0.2,5,0.6,7.5c0.4,1.9,0.3,3.8,0.4,5.7c0.1,2.9,0.4,5.9,0.6,8.8c0.2,2.4,0.2,4.8,0.6,7.1
		c0.3,1.6,0.3,3.3,0.5,4.9c0.4,4.8,1,9.5,1.6,14.2c0.5,3.6,0.8,7.3,1.3,11c0.7,4.8,1.1,9.6,1.9,14.4c0.5,2.8,0.6,5.6,0.9,8.3
		c0.4,3.2,0.7,6.5,1.1,9.7c0.2,1.7,0.3,3.4,0.4,5.1c0.3,3.7,0.7,7.3,1,11c0.2,2.2,0.2,4.5,0.6,6.7c0.3,1.5,0.5,3.2-0.2,4.8
		c-0.8-7.1-1.6-14.3-2.6-21.4c-0.9-6.8-2-13.7-3-20.5c-1.1-7.5-2.1-15-3.1-22.6c-0.8-6.2-1.6-12.5-2.3-18.7
		c-0.6-5.6-1.2-11.2-1.8-16.7c-0.6-6.1-1.3-12.1-1.9-18.2c-0.5-4.4-0.9-8.9-1.4-13.3c-0.6-5.5-1.3-11-1.9-16.5
		c-0.3-2.8-0.6-5.6-0.9-8.4c-0.2-1.7,0-1.8,1.6-1.6C11.7,135,13.4,135.1,15,135.1z"/>
	<path class="st1" d="M178.7,336.8c0-4.8,0.1-9.6,0-14.4c-0.1-4.5,0.3-8.9,0.5-13.3c0.3-3.9,0.6-7.9,1-11.8c0.3-3.3,0.7-6.6,1-10
		c0.2-2.9,0.8-5.8,1.1-8.7c0.3-2.5,0.6-5,0.9-7.5c0.5-4,1.1-8.1,1.6-12.1c0.4-3,0.6-6.1,0.9-9.1c0-0.4-0.2-1.1,0.7-0.7
		c-0.1,0.8-0.1,1.5-0.2,2.3c-0.5,6-0.9,12-1.4,18c-0.6,6.3-1.3,12.5-1.9,18.8c-0.7,6.9-1.2,13.8-1.8,20.7c0,0.4-0.3,1,0.2,1.4
		c0.7-3.1,1.1-6.1,1.4-9.2c1.1-9.1,2.1-18.2,3.1-27.4c0.6,2.6,0.3,5.2,0.2,7.7c-0.1,1.1-0.3,2.3-0.3,3.5c0,2.2-0.1,4.4,0,6.6
		c0.1,4.1-0.8,8.2-0.4,12.3c0.5,4.9,0.1,9.9,0.5,14.8c0.3,4.7,0.5,9.4,1.2,14.1c-2.2,1.2-4.5,2.5-6.7,3.7
		C179.8,336.6,179.3,336.8,178.7,336.8z"/>
	<path class="st2" d="M131.5,339.3c-0.9-13.2-0.3-26.4-0.4-39.6c-0.1-4.2,0-8.5,0-12.7c1.3,0,2.7-0.1,4-0.1c0,0.9,0.1,1.8,0.1,2.7
		c0,13.2-0.1,26.4,0,39.6c0,3.4-0.6,6.8-0.4,10.2C133.6,339.2,132.6,339.3,131.5,339.3z"/>
	<path class="st2" d="M114.1,339.9c0.2-5.6-0.2-11.2-0.5-16.8c-0.6-11.9-0.1-23.8-0.3-35.7c0-0.5,0-1.1,0-1.6c1.3-0.2,2.5,0,3.7,0.2
		c0,7.3-0.2,14.6,0.1,21.9c0.2,6,0,12,0.4,18c0.3,4.6,0.1,9.3,0.4,13.9C116.7,340.1,115.4,340,114.1,339.9z"/>
	<path class="st2" d="M70.5,284.9c-0.2,4.2,0.4,8.3,0.5,12.5c0.1,2.6,0.1,5.2,0.3,7.8c0.4,4.5,0.1,9,0.8,13.5c0,0.1,0,0.1,0,0.2
		c-0.2,3.8,0.5,7.5,0.4,11.2c-0.1,3.2,0.7,6.4,0.3,9.6c-1.1,0-2.2-0.1-3.3-0.1c-0.3-3-0.2-6.1-0.7-9.1c0-0.1,0-0.3,0-0.4
		c0.2-3.1-0.3-6.3-0.5-9.4c-0.4-4.1,0-8.2-0.7-12.2c0-0.3,0-0.5,0-0.8c0.2-4.8-0.3-9.5-0.5-14.3c-0.1-2.8-0.3-5.6-0.3-8.4
		C68.1,284.8,69.3,284.8,70.5,284.9z"/>
	<path class="st2" d="M157.8,72.2c2.4,4.2,4.5,8.6,6.7,13c0.6,1.3,1.2,2.6,1.7,4c0.5,1.3,0.3,1.6-1.2,1.5c-2.7-0.1-5.5-0.2-8.2-0.2
		c-8.1,0-16.2,0-24.3,0c-1.4,0-2.9,0-4.3,0.2c-1.4,0.2-1.6-0.1-1.7-1.4c0-1.2,0.1-1.4,1.4-1.4c4.7,0.1,9.3-0.2,14,0.3
		c2.6,0.3,5.2,0,7.7-0.7c3.1-0.9,5.3-2.8,6.2-6c0.7-2.5,1.1-5.1,1.5-7.7C157.4,73.2,157.3,72.6,157.8,72.2
		C157.8,72.1,157.8,72.2,157.8,72.2z"/>
	<path class="st2" d="M101.8,286c-0.1,9.6,0.7,19.3,0.4,28.9c0,1.2-0.2,2.5,0,3.7c0.7,3.9,0.3,7.9,0.6,11.8c0.3,3.2,0.7,6.4,0.5,9.6
		c-1.2,0.1-2.5,0.1-3.7,0.2c0.2-4-0.4-8-0.8-12c0-0.3,0-0.5,0-0.8c-0.5-13.8-0.5-27.5-0.4-41.3C99.6,286.1,100.7,286.1,101.8,286z"
		/>
	<path class="st2" d="M81.2,340c-0.7-5.1-1-10.3-1.3-15.4c-0.7-13-0.1-26.1-0.4-39.1c1.1-0.2,2.2,0.1,3.3,0.2
		c0,8.6-0.1,17.1,0.1,25.7c0.1,5.2,0.1,10.4,0.4,15.6c0.2,3.5,0.4,7.1,1.1,10.5c0.2,0.9,0,1.8,0.1,2.7C83.4,340,82.3,340,81.2,340z"
		/>
	<path class="st4" d="M146.6,91.7c5.2,0,10.4,0.2,15.6,0.4c8.4,0.3,16.7,0.2,25.1,0.5c6.5,0.3,13,0,19.5-0.5
		c1.8-0.1,3.7-0.2,5.5-0.3c0.5,0,1.1,0,1.6-0.2c1.7-0.6,1.7-0.6,1.5,1.3c0,0.3-0.1,0.7-0.1,1c0,0.7-0.4,1-1.1,0.9
		c-0.9-0.1-1.8-0.2-2.7-0.3c-4.4-0.4-8.9-0.6-13.3-0.8c-6-0.2-12.1-0.4-18.1-0.5c-7.1-0.1-14.1,0.7-21.1,1.1
		c-6.8,0.3-13.6,0-20.3-0.9c-3.3-0.5-6.6-0.5-9.8-0.5c-0.7,0-2,0.4-2-0.7c0-0.8,1.3-0.3,2-0.3C134.8,91.7,140.7,91.7,146.6,91.7
		C146.6,91.8,146.6,91.6,146.6,91.7z"/>
	<path class="st1" d="M188.5,188.6c-0.1-0.2-0.3-0.5-0.3-0.7c0-3.3-0.2-6.5-0.4-9.8c-0.2-3.9-0.5-7.7-0.8-11.6
		c-0.2-3.5-0.6-6.9-1-10.3c-0.4-3.6-0.6-7.3-1.1-10.9c-0.3-1.8-0.1-3.7-0.1-5.5c1.6-0.5,3.2-1,4.9-1.3c0,5.7-0.2,11.5,0.1,17.2
		c0.5,11.4,0.3,22.8,0.3,34.2c0,0.8,0.2,1.6-0.2,2.4c-0.2-8,0-16.1-0.7-24.1c-0.7,2-0.7,4.1-0.7,6.3
		C188.6,179.1,188.6,183.9,188.5,188.6z"/>
	<path class="st2" d="M114.1,180.3c-0.3-4.2-0.4-8.4-0.7-12.7c-0.3-3.5-0.7-7.1-1-10.6c-0.3-3.2-0.9-6.3-1.3-9.5
		c-0.4-2.9-0.8-5.8-0.7-8.8c0-0.8,0.4-1.4,0.6-2.2c0.5,0,1,0,1.5,0.3c-0.1,3.2,0.8,6.3,1.4,9.5c0.7,4.2,1.6,8.3,2,12.5
		c0.3,2.7,0.8,5.4,1.1,8.1c0.3,1.9,0,3.8,0.3,5.7c0.4,2.6,0,5.3,0.4,7.9C116.5,180.5,115.3,180.4,114.1,180.3z"/>
	<path class="st4" d="M235.1,94.3c0.1,2.1,0,4.6-1.1,7c-0.3,0.6-0.6,1.2-0.9,1.8c-0.9,1.8-2.2,2.6-4.3,2.4c-1.7-0.2-2-0.3-2.5-1.9
		c-1.1-3.5-1.2-7.1-0.7-10.8c0.5-3.2,2-5.6,4.5-7.6c1.1-0.9,1.7-0.9,2.9,0c1,0.7,1.5,1.7,1.7,2.9C235,90,235.1,91.9,235.1,94.3z
		 M231.2,90c-1.8,2.8-1.7,5.9-1.2,9c0.1,0.7,0.8,1.1,1.6,0.8c0.6-0.2,0.8-0.6,1.1-1.1c0.8-1.5,0.7-3,0.7-4.6
		C233.5,92.4,233.1,90.9,231.2,90z"/>
	<path class="st2" d="M94.8,134.5c0,2.9,0.5,5.7,0.7,8.5c0.2,1.8,0.4,3.7,0.5,5.5c0.1,2,0.4,4.1,0.7,6.1c0.2,1.6,0.4,3.3,0.5,4.9
		c0.2,4.6,0.9,9.1,1,13.7c0,2.1,0.3,4.2,0.3,6.3c-1.1,0-2.2,0-3.3-0.1c0.3-4.2-0.3-8.3-0.5-12.5c-0.1-3.5-0.4-7.1-0.8-10.6
		c-0.5-4.1-0.7-8.1-1-12.2c-0.3-2.9-1.1-5.8-0.1-8.7c0.1-0.4,0.3-0.8,0.4-1.2C93.7,134.3,94.3,134.2,94.8,134.5z"/>
	<path class="st1" d="M29.9,58.7c-0.3,2.4-1.2,4.7-1.8,7.2c-4.2-2.4-8.3-4.7-12.5-7c0.3-0.6,0.7-0.9,1.2-0.9
		C21.2,58.2,25.5,57.7,29.9,58.7z"/>
	<path class="st4" d="M47.2,88.2c0.4,0,0.8,0,1.2,0c0.6,0,0.9,0.2,1.1,0.9c0.5,2,0.5,2-1.1,3.1c-0.3,0.2-0.7,0.5-1,0.7
		c-1.4,1-1.9,0.9-2.4-0.8c-0.2-0.5-0.2-1.1-0.2-1.6C44.8,88.3,44.9,88.2,47.2,88.2z"/>
	<path class="st4" d="M55.5,89c-1.3,1-2.7,0.9-3.8,1.4c-0.7,0.3-0.7-0.4-0.7-0.9c-0.1-0.5-0.1-1.1,0.6-1C52.7,88.6,54,88.5,55.5,89z
		"/>
	<path class="st4" d="M227.9,83.9c-0.3,0.2-0.6,0.4-0.8,0.6c-0.4,0.2-0.8,0.5-1.1,0.4c-0.8-0.1-1,0.4-1.2,1c-1.8,4.5-2.7,9.2-2.7,14
		c0,0.2,0,0.4,0,0.6c-0.1,0.2,0.1,0.6-0.5,0.6c-1.7-5.8-0.1-11.2,2.4-16.4c-2.9-1.3-4.4-0.7-5.3,2.1c-0.4,1-0.7,2.1-0.9,3.2
		c-0.6,3.1-1.3,6.2-0.9,9.4c0.3,2.1,1,3.4,4,3.2c1.1-0.1,2.2-0.1,3.1,0.8c0.2,0.2,0.5,0.5,0.9,0.1c-0.2-0.7-0.4-1.3-0.5-2
		c-1-6.1-1.1-12.1,3.9-16.8c0.3-0.2,0.8-0.3,0.6-0.7C228.6,83.6,228.2,83.8,227.9,83.9z"/>
	<path class="st2" d="M21.6,134.7c-0.4,0.5-0.8,0.4-1.2,0C20.8,134.8,21.2,134.7,21.6,134.7z"/>
	<path class="st2" d="M110.2,136.6c-0.4,0.2-0.7,0.2-0.9-0.2C109.6,136.3,109.9,136.4,110.2,136.6z"/>
	<path class="st0" d="M95.2,179.5c1.1,0,2.2,0,3.3,0.1c5.2,0.3,10.4,0.5,15.6,0.8c1.2,0.1,2.4,0.2,3.6,0.2c4.3,0.5,8.6,1,12.9,1
		c1.2,0.1,2.5,0.2,3.7,0.3c3.1,0.4,6.3,0.5,9.4,1.3c0.5,0.1,0.9,0.2,1.4,0.4c0.7,0.3,2.2,0.2,0.8,1.6c-0.3,0.3,0,0.7,0.1,1
		c0.9,2.9,1,5.9,1,9c0,10.7-0.5,21.4-0.9,32.1c-0.5,11-1.9,22-3.4,32.9c-0.9,6.5-1.5,13.1-1.8,19.6c-0.1,2.2-0.4,4.4-2.4,5.8
		c-1,0.8-2.1,1.3-3.4,1.3c-1.3,0-2.7,0.1-4,0.1c-0.1,0-0.1-0.1-0.2-0.1c-4.6-0.3-9.2-1-13.8-0.8c-1.2-0.2-2.5-0.4-3.7-0.2
		c-3.8-0.1-7.7-0.3-11.5,0.2c-1.1,0-2.2,0-3.3,0c-5.2-0.4-10.4-0.4-15.7-0.5c-1.1-0.1-2.2-0.4-3.3-0.2c-3-0.2-6-0.6-9-0.5
		c-1.2-0.2-2.5-0.2-3.7-0.1c-3.6-0.5-7.1-0.5-10.7-0.5c-1.2,0-2.4-0.4-3.7-0.3c-2.1-0.2-4.3-0.3-6.4-1c-0.6-0.2-1.3,0-1.8-0.1
		c-0.4-0.1-0.4-1.2-1.1-1.6c-0.2-0.2-0.4-0.3-0.6-0.5c-0.1-0.3-0.3-0.5-0.4-0.8c1.3-0.4,1.3-0.4,1-2c-0.9-5.6-1.4-11.2-1.9-16.9
		c-0.3-2.6-0.2-5.2-0.8-7.7c0.2-2.8-0.3-5.6-0.5-8.4c-0.4-5-0.9-10.1-1.5-15.1c-0.6-5.1-1.2-10.2-1.8-15.3
		c-0.7-5.7-1.5-11.4-2.2-17.1c-0.7-5.3-1.4-10.6-1.3-15.9c0-0.4,0-0.8-0.3-1.2c-0.9-1-0.3-1.6,0.7-1.9c4.2-0.6,8.5-0.7,12.7-0.8
		c1,0,1.9,0,2.9,0.1c3.4,0.3,6.9,0.4,10.3,0.3c1.2,0,2.4,0.1,3.6,0.1c4.1,0.4,8.3,0.4,12.4,0.4c1.1,0,2.1,0.1,3.2,0.1
		c0.3,0.1,0.7,0.2,1,0.2c4.8,0.1,9.5,0.2,14.3,0.4C94.4,179.5,94.8,179.5,95.2,179.5z M76.2,180.5c-10.6-0.4-21.1-0.8-31.7-1.1
		c-3.1-0.1-6.2,0.1-9.2,0.4c-1,0.1-1.5,0.5-1.4,1.5c0.1,1.4,0,2.9,0.1,4.3c0.9,7.4,1.8,14.8,2.9,22.2c2.1,14.2,3.5,28.6,4.7,42.9
		c0.8,9.6,1.3,19.1,2.5,28.7c0.3,2,0.4,2.2,2.4,2.7c2.2,0.5,4.5,0.6,6.7,0.7c8.4,0.3,16.7,0.6,25.1,1.1c9,0.5,17.9,0.8,26.9,0.5
		c7.5-0.3,14.9,0,22.4,0.8c2.5,0.3,5.1,0.4,7.6,0c0.7-0.1,1.4-0.1,1.9-0.7c1.2-1.7,2.4-3.2,2.4-5.5c0.1-5.8,0.7-11.5,1.4-17.2
		c0.8-6.4,1.7-12.9,2.5-19.3c0.9-7.9,1.1-15.8,1.6-23.8c0.2-3.3,0.1-6.7,0.3-10.1c0.4-5.7,0.6-11.5,0.2-17.3
		c-0.1-1.7-0.3-3.4-0.8-5.1c-0.3-0.9-0.8-1.5-1.8-1.6c-2.7-0.3-5.3-0.8-8-0.9c-4.3-0.2-8.6-0.7-12.9-1c-4.8-0.3-9.6-0.9-14.4-1
		C97.2,181.2,86.7,180.8,76.2,180.5z"/>
	<path class="st2" d="M63.1,178.4c-1.2,0-2.4-0.1-3.6-0.1c0.1-2.7-0.4-5.3-0.7-7.9c-0.2-1.5-0.4-3-0.5-4.5c-0.3-4.3-0.7-8.6-1-12.8
		c-0.3-3.9-0.1-7.8-0.3-11.7c-0.1-1.7,0.4-3.4,0.5-5.1c0-1,0.7-1.2,1.6-1.2c0.9,0.1,0.9,0.7,0.9,1.3c0,2.1,0.1,4.2,0,6.4
		c-0.2,4.1,0.2,8.2,0.5,12.3c0.5,5.3,1,10.7,1.8,16C62.6,173.5,63,175.9,63.1,178.4z"/>
	<path class="st2" d="M49.1,177.9c-1,0-1.9,0-2.9-0.1c-0.3-1.1-0.4-2.1-0.4-3.2c0.1-3.9-0.3-7.8-0.5-11.7c-0.4-5.5-0.3-11-0.2-16.4
		c0.1-2.7,0-5.5,0.7-8.1c0.2-0.9,0.4-1.9,1-2.7c0.3-0.5,0.8-0.8,1.4-0.4c0.5,0.3,0.5,0.7,0.2,1.2c-0.8,1.8-0.9,3.7-0.9,5.6
		c-0.1,3.6-0.3,7.2,0.1,10.7c0.4,4,0.1,7.9,0.6,11.9c0.3,2.5,0.6,5,0.5,7.5C48.6,174.2,49.3,176,49.1,177.9z"/>
	<path class="st2" d="M78.7,178.9c-1.1,0-2.1-0.1-3.2-0.1c0.1-3.6-0.3-7.1-0.6-10.6c-0.4-5.6-0.9-11.2-0.7-16.8
		c0.1-3.6,0.5-7.2,1.2-10.7c0.1-0.7,0.3-1.4,0.8-2c0.5,0.2,0.4,0.5,0.4,0.8c0,6.5,0.5,13,0.5,19.5c0,2.8,0.2,5.6,0.7,8.3
		c0.3,1.8,0.3,3.7,0.4,5.5C78.4,174.8,78.9,176.8,78.7,178.9z"/>
	<path class="st0" d="M53.1,100.2c0.1,0.4,0,0.6-0.3,0.9c-7.8,5.6-15.2,11.6-23.3,16.7c-1.2,0.7-2.3,1.6-4.1,1.9
		c1.2-1.5,3.1-1.8,4.1-3.1c0,0,0,0,0,0c0.4,0,0.7-0.1,0.8-0.5c0,0,0,0,0,0c0.2,0,0.4-0.1,0.5-0.4c5-3.1,9.5-7,14.3-10.3
		C47.7,103.7,50.1,101.5,53.1,100.2z"/>
	<path class="st2" d="M30.2,116.2c-0.2,0.4-0.4,0.5-0.8,0.5C29.5,116.2,29.9,116.2,30.2,116.2z"/>
	<path class="st2" d="M30.8,115.8c-0.1,0.2-0.3,0.3-0.5,0.4C30.3,115.9,30.5,115.8,30.8,115.8z"/>
	<path class="st0" d="M60.2,51.3c-3.3,1-6.8,1.2-10.2,1.1c-12.3-0.5-24.5-0.4-36.8-0.8c-0.4,0-0.8,0.1-1.3-0.5
		C28.1,50.3,44.1,51.1,60.2,51.3z"/>
	<path class="st0" d="M173.9,57.6c-4.1,0.2-8.2,0.2-12.4-0.4C163.1,55.8,171.1,56,173.9,57.6z"/>
	<path class="st2" d="M134.3,181.9c-1.2-0.1-2.5-0.2-3.7-0.3c0-4-0.4-7.9-0.7-11.8c-0.2-2.2-0.3-4.4-0.4-6.5
		c-0.1-2.4-0.4-4.7-0.8-7.1c-0.2-1.5-0.3-3-0.4-4.5c-0.2-3.2-0.8-6.4-0.5-9.6c0.1-0.7,0.1-1.4,0.4-2c0.3-0.4,0.5-0.8,1.1-0.8
		c0.5,0.1,0.8,0.4,0.9,1c0.1,0.9,0.4,1.9,0.4,2.8c0.3,5.9,1.3,11.6,2,17.4c0.4,3.8,0.8,7.6,1,11.4
		C133.7,175.3,134.2,178.6,134.3,181.9z"/>
	<path class="st0" d="M151.1,81c0.3-4,1-7.9,1.8-12.1C153.2,70.8,152.1,78.9,151.1,81z"/>
	<path class="st0" d="M121.8,90.3c0,1.7,0,3.5,0,5.2c-0.4-1.7-0.8-3.4-0.5-5.2C121.5,90.1,121.6,90.1,121.8,90.3z"/>
	<path class="st0" d="M121.8,90.3c-0.2-0.2-0.3-0.2-0.5,0c-0.1-1.2-0.1-2.4,0.4-3.6C122,87.9,122.1,89.1,121.8,90.3z"/>
	<path class="st0" d="M188.5,188.6c0-4.7,0.1-9.4,0.1-14.2c0-2.1,0-4.2,0.7-6.3c0.7,8,0.5,16.1,0.7,24.1c-0.1,3.1-0.2,6.2-0.1,9.2
		c0.1,5.8,0.2,11.6-0.1,17.5c-0.4,8.1-0.7,16.1-1.4,24.2c-0.2,2.4-0.3,4.9-0.4,7.4c-0.5,6.2-0.9,12.4-1.6,18.6
		c-0.2,1.6-0.2,3.1-0.3,4.7c-1,9.1-2,18.2-3.1,27.4c-0.4,3-0.7,6.1-1.4,9.2c-0.6-0.5-0.3-1-0.2-1.4c0.6-6.9,1.2-13.8,1.8-20.7
		c0.6-6.3,1.3-12.5,1.9-18.8c0.5-6,0.9-12,1.4-18c0.1-0.8,0.1-1.5,0.2-2.3c0.2-0.4,0.2-0.8,0.1-1.3c0-1.1,0.1-2.2,0.1-3.3
		c0.2-0.3,0.3-0.8,0.3-1.2c0.2-3.8,0.3-7.6,0.5-11.5c0.2-3.1,0.4-6.1,0.6-9.2c0.1-1.7,0-3.4,0.1-5.1c0.5-8.9,0.3-17.8,0.4-26.7
		C188.6,190.1,188.6,189.3,188.5,188.6z"/>
	<path class="st0" d="M31.3,25.7c0.1-4.4,1.1-8.1,3.6-11.3c1.2-1.5,2.2-3.2,3.5-4.5c3-3,6.1-3.5,9.9-1.6c0.9,0.5,1.8,1,2.6,1.7
		c4,3.7,7,7.9,6.4,13.7c-0.2,1.7-0.5,3.3-1.3,4.7c-1.4,2.6-3.1,5-5.3,7c-3.6,3.3-7.8,3.9-12.2,2.2c-4.3-1.7-6.4-5.1-7.1-9.6
		C31.3,27.1,31.3,26.2,31.3,25.7z M48.5,27.8c1.7-1.4,2.3-3,2-4.9C49.9,24.7,49.2,26.2,48.5,27.8z M46.3,10.1
		c-1.3-0.6-2.6-1-4.2,0.1C43.7,10.3,45,9.7,46.3,10.1z M41.7,30.1c0.1,0,0.2-0.1,0.4-0.1c-0.1-0.3-0.3-0.4-0.6-0.5
		c-0.1,0-0.3,0.1-0.3,0.1C41.2,29.9,41.4,30.1,41.7,30.1z"/>
	<path class="st2" d="M52.4,284.1c1.2-0.2,2.4,0.3,3.7,0.3c0.1,3.5,0.6,6.9,0.8,10.4c0.2,2.6,0.4,5.2,0.6,7.8
		c0.2,2.8,0.2,5.6,0.7,8.4c0.3,1.9,0.3,4,0.4,5.9c0.1,4.4,0.7,8.9,0.5,13.3c-0.1,1.5-0.4,3-0.7,4.4c-0.2,0.6-0.4,1.3-1.1,1.2
		c-0.8,0-0.9-0.6-1-1.3c-0.2-1.3-0.4-2.7-0.4-4.1c0-4.2-0.4-8.4-0.7-12.7c-0.2-2.2-0.3-4.5-0.5-6.7c-0.3-3.2-0.4-6.4-0.8-9.6
		c-0.2-1.8-0.2-3.7-0.4-5.5c-0.2-2.5-0.7-5-0.5-7.6C52.9,286.9,52.3,285.6,52.4,284.1z"/>
	<path class="st0" d="M146.7,21.6c1.4,8-6.8,16.5-12.7,17.3c-3.2,0.5-6.2,0-8.9-1.5c-3.7-2.1-5.4-5.7-4.7-10.1
		c0.8-5.2,3.1-9.6,6.6-13.5c0.7-0.8,1.6-1.5,2.3-2.3c2.3-2.2,5.1-3,8.1-2.9c4.3,0.1,7.6,3,8.7,7.4C146.7,17.9,146.7,19.8,146.7,21.6
		z"/>
	<path class="st1" d="M186.6,244.5c0,1.1-0.1,2.2-0.1,3.3C186,246.7,185.9,245.6,186.6,244.5z"/>
	<path class="st1" d="M40.5,253.5c0.6,2.5,0.5,5.1,0.8,7.7c0.6,5.6,1,11.3,1.9,16.9c0.3,1.6,0.3,1.6-1,2c-0.1-3-0.4-6.1-0.8-9.1
		c-0.2-1.9-0.3-3.9-0.4-5.9C40.7,261.2,40.3,257.4,40.5,253.5z"/>
	<path class="st0" d="M231.2,90c1.9,0.9,2.3,2.4,2.2,4.1c0,1.6,0.1,3.1-0.7,4.6c-0.3,0.5-0.5,1-1.1,1.1c-0.8,0.3-1.5-0.1-1.6-0.8
		C229.5,95.9,229.5,92.8,231.2,90z M231.5,97.8c0.6-2,0.9-4,0.1-6C231,93.8,230.9,95.8,231.5,97.8z"/>
	<path class="st3" d="M76.2,180.5c10.5,0.4,21,0.7,31.4,1.1c4.8,0.2,9.6,0.7,14.4,1c4.3,0.3,8.6,0.8,12.9,1c2.7,0.1,5.3,0.6,8,0.9
		c1,0.1,1.5,0.7,1.8,1.6c0.5,1.7,0.7,3.4,0.8,5.1c0.3,5.8,0.2,11.5-0.2,17.3c-0.2,3.4-0.1,6.7-0.3,10.1c-0.5,7.9-0.6,15.9-1.6,23.8
		c-0.8,6.4-1.7,12.9-2.5,19.3c-0.7,5.7-1.3,11.4-1.4,17.2c0,2.3-1.3,3.8-2.4,5.5c-0.4,0.6-1.2,0.6-1.9,0.7c-2.5,0.5-5.1,0.3-7.6,0
		c-7.4-0.7-14.9-1-22.4-0.8c-9,0.3-17.9,0-26.9-0.5c-8.4-0.5-16.7-0.7-25.1-1.1c-2.3-0.1-4.5-0.2-6.7-0.7c-2-0.5-2.2-0.6-2.4-2.7
		c-1.3-9.5-1.7-19.1-2.5-28.7c-1.2-14.3-2.7-28.7-4.7-42.9c-1.1-7.4-1.9-14.8-2.9-22.2c-0.2-1.4-0.1-2.9-0.1-4.3
		c0-1,0.4-1.4,1.4-1.5c3.1-0.3,6.2-0.5,9.2-0.4C55.1,179.7,65.7,180.1,76.2,180.5z M65.7,193.5c1.1,0.1,2.2-0.3,3.2-0.6
		c0.2-0.1,0.3-0.1,0.5-0.2c0.6,0.1,1.1,0.2,1.6-0.3c1.6-0.1,3.2-0.5,4.9-0.5c1.2,0,1.9-0.8,2.8-1.8c-1.6-0.3-3-0.3-4.3-0.3
		c-6,0.2-12,0.7-18.1,0.5c-2-0.1-2,0-2.6,1.9c0,0.1,0,0.1,0,0.2c-0.8,2.7-0.6,3,2.3,2.8c0.7,0,1.4-0.2,2-0.2c0.6-0.1,1.3-0.3,2,0
		c-0.8,0.5-1,1.2-0.8,2c0.1,0.7,0.2,1.5,0.3,2.2c0.2,4.2,0.3,8.3,0.5,12.5c0.1,2.7,0.2,2.7-2.6,2.6c-0.1,0-0.1,0-0.2,0
		c-0.7-0.2-1,0.1-1.3,0.7c-0.9,2-0.6,2.6,1.6,2.6c0.4,0,0.8-0.1,1.2-0.1c1.6-0.2,1.6-0.2,1.7,1.3c0.1,2.9,0.2,5.7,0.4,8.6
		c0.1,2.5,0.1,2.4,2.4,1.9c1-0.2,1.4-0.6,1.3-1.8c-0.2-3.2-0.2-6.4-0.3-9.6c0-1,0.3-1.5,1.3-1.7c2-0.4,3.9-0.8,5.8-1.1
		c1.7-0.3,3.4-0.2,4.6-1.7c0.4,0.7,0.2,1.2,0.1,1.7c-0.5,1.9-0.4,3.8-0.4,5.7c0,2.1,0.5,4.2,1.5,6.1c1.3,2.3,3.4,2.7,5.5,1.1
		c1.3-1,2.2-2.4,3-3.9c0.2-0.4,0.3-1.1,1-1.1c0.2,0.8,0.3,1.5,0.6,2.2c0.3,0.8,0.6,1.5,1,2.2c1.3,2.3,3.1,2.7,5.3,1.2
		c1.3-0.9,2.2-2.2,3-3.6c0.3-0.6,0.4-1.3,1.1-1.6c0.4,0.5,0.4,1,0.5,1.5c0.3,1.3,0.7,2.5,1.4,3.6c0.4,0.6,0.8,1.2,1.6,1.1
		c0.9,0,1-0.8,1.2-1.4c1.3-3.5,2.6-6.9,3.9-10.4c0.2-0.5,0.1-1.3,1.1-1.5c-0.2,2.5,0,5,0.2,7.4c0.2,1.8,0.4,3.7,1.2,5.4
		c0.6,1.2,1.5,1.6,2.3,0.8c1.4-1.4,2.4-3,2.2-5.3c-0.9,0.6-0.7,1.8-1.9,2.2c-0.3-12.5,0.6-24.8,2.3-37.1c-1.2,0.1-2.2,0.5-3.1,0.8
		c-0.7,0.2-1,0.5-1.1,1.3c-0.3,2.2-0.7,4.3-0.9,6.5c-0.2,2.4-0.4,4.8-0.6,7.2c-0.1,0.8,0,1.6-0.7,2.5c-0.2-0.3-0.2-0.4-0.4-0.6
		c-1-1.3-1-1.3-2.5-0.8c-2.4,0.9-3.9,2.8-4.9,5c-1,2.1-1.5,4.4-1.6,6.7c-0.2,3.4-1.9,6.1-3.8,8.7c-0.7,0.9-1.1,0.8-1.7-0.1
		c-0.9-1.4-1.1-3-1.3-4.7c-0.2-1.3-0.2-2.4,1.2-3.1c0.7-0.3,1.3-1.1,1.7-1.7c1.7-2.4,2.7-5.1,3.1-7.9c0.1-0.8,0.2-1.6-0.1-2.4
		c-0.4-1.2-1-1.5-2.3-1.2c-3.2,0.7-5,2.9-6.2,5.7c-1.1,2.3-1.3,4.9-1.7,7.4c-0.5,2.9-1.9,5.4-3.7,7.7c-0.5,0.7-1.1,0.7-1.6-0.1
		c-1.2-1.9-1.4-4.1-1.5-6.3c0-0.6,0.5-0.9,1-1.2c0.8-0.5,1.5-1.2,2.1-2c1.6-2.4,2.6-5.1,3-8c0.1-0.8,0.1-1.5-0.1-2.2
		c-0.3-1.3-0.9-1.6-2.2-1.4c-1.6,0.3-2.9,1.1-4.1,2.3c-1.6,1.7-2.5,3.7-3.2,6c-1.1-0.5-2.1-0.4-3.2-0.4c-2.5,0.1-5,0.4-7.5,0.8
		c-1.3,0.2-1.6,0-1.6-1.4c0-2.7-0.1-5.3-0.2-8c-0.2-3.1-0.1-6.2-0.2-9.2c0-0.9,0.2-1.5,1.2-1.5C65,193.8,65.3,193.6,65.7,193.5z
		 M83.3,275.5c-1.4-1.5-1.9-3.2-2.5-4.9c-3.2-9.7-5.1-19.7-6.6-29.8c-0.3-1.8-0.2-3.6-0.8-5.5c-1.4,0.6-2.7,1.2-4.1,1.7
		c-0.8,0.3-1,0.8-0.9,1.6c0.2,1.2,0.2,2.3,0.2,3.5c0,3.2,0.1,6.4,0.2,9.7c0.2,5.7,0.4,11.5,0.7,17.2c0.1,2.7,0.2,5.5,0.3,8.2
		c0,0.4-0.1,1.2,0.6,1.1c1.1-0.2,2.1-0.6,3.1-1c0.7-0.4,0.3-1.2,0.4-1.9c0.2-5.5-0.3-11,0-16.4c0-0.5-0.2-1.1,0.6-1.5
		c0.3,1.1,0.6,2,0.9,3c1.6,5.2,3.3,10.4,5.8,15.3c0.4,0.8,0.8,1.6,1.5,2.2c0.4,0.4,0.8,0.5,1.2-0.1c0.6-0.8,1.1-1.8,1.4-2.7
		c1.7-4.2,2.7-8.6,3.6-13c0.2-0.8,0.2-1.7,0.8-2.8c0.1,0.5,0.2,0.7,0.2,1c0.2,3.7,0.3,7.4,0.5,11.1c0.1,1.8,0.2,3.7,0.3,5.5
		c0,0.5,0,1.3,0.4,1.5c1,0.4,2-0.2,3-0.4c0.6-0.1,0.4-0.8,0.3-1.2c-0.1-5.7-0.3-11.4-0.4-17.1c-0.1-6.2-0.2-12.3-0.4-18.5
		c0-0.6,0-1.2-0.5-1.9c-1.2,0.5-2.5,1-3.7,1.5c-0.6,0.3-0.7,0.8-0.7,1.3c-0.3,5.3-0.8,10.6-1.5,16c-0.6,4.7-1.3,9.4-2.7,14
		C84.5,273.4,84.2,274.5,83.3,275.5z M111.1,258.8c-0.2-0.1-0.2,0-0.4,0.1c-0.3,0.3-0.3,0.6-0.4,0.9c-1.2,4.1-2.6,8.1-4.4,11.9
		c-0.6,1.2-1.2,2.3-2,3.3c-0.9,1.1-1.4,1-2.1-0.2c-0.9-1.5-1-3.2-1.2-4.9c-0.1-1.1,0.2-1.7,1.1-2.4c3.5-2.7,4.7-6.6,5.1-10.8
		c0-0.5-0.2-0.9-0.3-1.3c-0.5-1.5-0.7-1.6-2.2-1.4c-1.8,0.3-3.4,1.2-4.5,2.7c-3.9,5.8-4.6,12-2.1,18.5c0.2,0.6,0.6,1.1,1,1.5
		c1,1.1,2.2,1.4,3.5,0.8c1-0.4,1.9-1.1,2.6-2c0.9-1.2,1.7-2.5,2.3-3.9c1.8-3.9,2.9-8,4.1-12C111.3,259.4,111.5,259.1,111.1,258.8z"
		/>
	<path class="st4" d="M231.5,97.8c-0.6-2-0.5-4,0.1-6C232.4,93.8,232.1,95.8,231.5,97.8z"/>
	<path class="st0" d="M69.4,192.7c-0.2,0.1-0.3,0.1-0.5,0.2c-1.2-0.2-2.2,0.2-3.2,0.6c-0.3,0.1-0.6,0.3-1,0.3c-1,0-1.2,0.6-1.2,1.5
		c0.1,3.1,0,6.2,0.2,9.2c0.2,2.7,0.2,5.3,0.2,8c0,1.4,0.3,1.6,1.6,1.4c2.5-0.4,5-0.7,7.5-0.8c1.1-0.1,2.1-0.1,3.2,0.4
		c0.7-2.3,1.6-4.3,3.2-6c1.1-1.2,2.5-1.9,4.1-2.3c1.3-0.3,1.9,0.1,2.2,1.4c0.2,0.7,0.2,1.5,0.1,2.2c-0.4,2.9-1.4,5.6-3,8
		c-0.6,0.8-1.3,1.4-2.1,2c-0.5,0.3-1,0.6-1,1.2c0,2.2,0.2,4.4,1.5,6.3c0.5,0.8,1.1,0.8,1.6,0.1c1.8-2.3,3.3-4.8,3.7-7.7
		c0.4-2.5,0.6-5,1.7-7.4c1.3-2.8,3.1-5,6.2-5.7c1.3-0.3,1.9,0,2.3,1.2c0.3,0.8,0.2,1.6,0.1,2.4c-0.4,2.9-1.4,5.6-3.1,7.9
		c-0.5,0.7-1,1.4-1.7,1.7c-1.4,0.7-1.4,1.7-1.2,3.1c0.2,1.6,0.4,3.3,1.3,4.7c0.6,0.9,1.1,1,1.7,0.1c1.9-2.6,3.6-5.3,3.8-8.7
		c0.1-2.4,0.6-4.6,1.6-6.7c1.1-2.2,2.5-4.1,4.9-5c1.5-0.6,1.5-0.6,2.5,0.8c0.1,0.2,0.2,0.3,0.4,0.6c0.7-0.9,0.6-1.7,0.7-2.5
		c0.2-2.4,0.3-4.8,0.6-7.2c0.2-2.2,0.6-4.3,0.9-6.5c0.1-0.7,0.4-1.1,1.1-1.3c1-0.3,1.9-0.7,3.1-0.8c-1.8,12.3-2.6,24.6-2.3,37.1
		c1.2-0.4,1-1.6,1.9-2.2c0.2,2.3-0.8,3.9-2.2,5.3c-0.8,0.8-1.7,0.4-2.3-0.8c-0.8-1.7-1-3.5-1.2-5.4c-0.2-2.4-0.4-4.9-0.2-7.4
		c-1,0.2-0.9,1-1.1,1.5c-1.3,3.5-2.6,6.9-3.9,10.4c-0.2,0.6-0.3,1.4-1.2,1.4c-0.8,0-1.2-0.6-1.6-1.1c-0.7-1.1-1.1-2.3-1.4-3.6
		c-0.1-0.5-0.1-1.1-0.5-1.5c-0.7,0.3-0.8,1.1-1.1,1.6c-0.8,1.4-1.7,2.7-3,3.6c-2.1,1.6-4,1.2-5.3-1.2c-0.4-0.7-0.7-1.5-1-2.2
		c-0.2-0.7-0.4-1.4-0.6-2.2c-0.7,0.1-0.8,0.7-1,1.1c-0.8,1.4-1.7,2.8-3,3.9c-2.1,1.6-4.2,1.3-5.5-1.1c-1-1.9-1.5-4-1.5-6.1
		c0-1.9-0.1-3.8,0.4-5.7c0.1-0.5,0.3-1.1-0.1-1.7c-1.2,1.5-3,1.4-4.6,1.7c-2,0.3-3.9,0.8-5.8,1.1c-1,0.2-1.3,0.7-1.3,1.7
		c0.1,3.2,0.1,6.4,0.3,9.6c0.1,1.2-0.3,1.5-1.3,1.8c-2.3,0.5-2.3,0.5-2.4-1.9c-0.1-2.9-0.2-5.7-0.4-8.6c-0.1-1.6-0.1-1.6-1.7-1.3
		c-0.4,0.1-0.8,0.1-1.2,0.1c-2.1,0-2.5-0.7-1.6-2.6c0.3-0.6,0.6-0.9,1.3-0.7c0.1,0,0.1,0,0.2,0c2.8,0.1,2.7,0.1,2.6-2.6
		c-0.2-4.2-0.3-8.3-0.5-12.5c0-0.8-0.1-1.5-0.3-2.2c-0.1-0.8,0.1-1.5,0.8-2c-0.7-0.3-1.4-0.1-2,0c-0.7,0.1-1.4,0.2-2,0.2
		c-2.9,0.1-3.1-0.2-2.3-2.8c0-0.1,0-0.1,0-0.2c0.6-1.9,0.6-2,2.6-1.9c6,0.2,12-0.3,18.1-0.5c1.3-0.1,2.7-0.1,4.3,0.3
		c-0.9,1-1.6,1.8-2.8,1.8c-1.7,0-3.2,0.4-4.9,0.5C70.4,192.4,69.8,192.3,69.4,192.7z M66.4,214.9c-0.3,0-0.7-0.1-1-0.1
		c-1.9,0.3-2.3-0.4-2.3-2.3c-0.1-5.2-0.3-10.4-0.4-15.6c-0.1-4.3-0.4-3.3,3.4-4.3c2.2-0.5,4.4-0.7,6.5-1.6c0.7,0.1,1.4,0,2.4-0.2
		c-1-0.2-1.7-0.3-2.4,0.1c-0.4-0.2-0.8-0.2-1.2-0.2c-5.3,0.1-10.5,0.6-15.8,0.3c-0.6,0-0.9,0.2-1.1,0.7c-0.2,0.5-0.3,1-0.5,1.6
		c-0.2,0.6,0.1,0.9,0.7,1c0.5,0,1,0.1,1.4,0c1.2-0.1,2.3-0.3,3.4-0.5c0.6-0.1,1.3-0.3,1.7,0.4c0.4,0.8-0.2,1.1-0.7,1.4
		c-0.6,0.4-0.7,0.9-0.7,1.5c0.3,5.3,0.6,10.6,0.9,16c0.1,1.7-0.2,2-1.9,2.1c-0.3,0-0.5,0-0.8,0c-0.6,0.1-1.6-0.3-1.6,0.7
		c0,1,1,0.6,1.6,0.6c0.1,0,0.1,0,0.2,0c1.9-0.4,2.7-0.6,2.8,2.4c0,0.4,0,0.8,0,1.2c0.1,2.5,0.2,4.9,0.4,7.4c0.1,1,0.6,1.2,1.5,0.8
		c0.7-0.3,0.5-0.9,0.6-1.4c0.2-3.2-0.3-6.3-0.2-9.4c0-1.7,0.1-1.8,1.8-2.2C65.5,215.4,66.2,215.6,66.4,214.9
		c0.9,0.4,1.7-0.1,2.5-0.3C68.1,214.6,67.2,214.2,66.4,214.9z M112.5,191c-2.3,0.3-2.4,0.3-2.7,2.2c-0.4,3.2-0.8,6.5-1.1,9.8
		c-0.4,3.5-0.3,7.1-1.2,10.5c-0.1,0.3-0.2,0.5,0,0.8c0.6,0.9,0.4,1.9,0.4,2.8c-0.1,3.2,0.1,6.3,0.6,9.4c0.1,0.8,0.3,1.6,0.7,2.3
		c0.2,0.4,0.5,0.9,1.1,0.5c0.5-0.3,1.1-0.7,0.5-1.4c-0.5-0.6-0.4-1.3-0.4-1.9c-0.3-3.4-0.1-6.7,0-10c0.2-5.9,0.6-11.7,1.2-17.6
		C112,195.9,112.2,193.6,112.5,191z M102.3,224.4c0.5-0.1,0.6-0.3,0.6-0.5c1.4-3.9,2.8-7.7,4.2-11.6c0.2-0.7,0.3-1.3,0.2-2
		c-0.1-1.2-0.7-2.4-1.6-2.7c-1-0.3-1.4,1.1-1.9,1.8c-0.1,0.2-0.2,0.4-0.3,0.6c-1.2,2.6-1.7,5.5-2.1,8.3
		C101.3,220.4,101.5,222.5,102.3,224.4z M81.7,206.9c-2.2,1.4-3.3,3.2-4.1,5.2c-1.3,3.2-1.5,6.5-1.2,9.9c0.1,1.8,0.6,3.7,1.7,5.2
		c0.9,1.3,1.6,1.4,2.9,0.7C77.3,220.8,79,214,81.7,206.9z M92.6,207.5c-0.7,0.2-1.2,0.3-1.6,0.9c-1.3,1.6-2.3,3.4-2.9,5.4
		c-0.5,1.7-0.4,3.4-0.8,5c-0.7,2.6,0.3,4.9,1,7.3c0.2,0.7,0.6,1.4,1.2,1.9c0.8,0.8,1.7,1.1,2.6,0.3C88.3,221.4,90,214.5,92.6,207.5z
		 M103.9,207.8c-1.1,0.3-1.6,1-2.2,1.6c-1.4,1.5-2.1,3.3-2.7,5.2c-0.7,2.2-0.9,4.6-0.9,6.9c0,2.3,0.6,4.7,2,6.8
		c0.1,0.2,0.2,0.3,0.4,0.5c0.2,0.2,0.5,0.2,0.7,0c0.7-0.6,1-2.7,0.6-3.5c-0.9-1.5-1.1-3.2-1.1-4.9
		C100.8,216,101.7,211.9,103.9,207.8z M90.7,218.9c1.3-0.7,2-1.4,2.6-2.2c1.5-2.2,2.3-4.7,2.8-7.4c0.2-0.8,0.3-2-0.7-2.4
		c-1-0.3-1.7,0.7-2.1,1.5C91.7,211.6,90.9,215,90.7,218.9z M79.7,218.3c1.2-0.5,1.8-1.1,2.3-1.9c1.6-2.3,2.6-4.9,2.9-7.8
		c0.1-0.8,0.4-1.9-0.6-2.2c-1-0.3-1.5,0.7-2,1.4c0,0.1-0.1,0.1-0.1,0.2C80.6,211.2,79.8,214.6,79.7,218.3z"/>
	<path class="st0" d="M83.3,275.5c0.9-1,1.2-2.1,1.5-3.1c1.3-4.6,2.1-9.3,2.7-14c0.6-5.3,1.2-10.6,1.5-16c0-0.6,0.1-1.1,0.7-1.3
		c1.2-0.5,2.5-1,3.7-1.5c0.5,0.7,0.4,1.3,0.5,1.9c0.1,6.2,0.2,12.3,0.4,18.5c0.1,5.7,0.3,11.4,0.4,17.1c0,0.4,0.3,1.1-0.3,1.2
		c-1,0.2-2,0.8-3,0.4c-0.5-0.2-0.4-1-0.4-1.5c-0.1-1.8-0.2-3.7-0.3-5.5c-0.2-3.7-0.3-7.4-0.5-11.1c0-0.2-0.1-0.5-0.2-1
		c-0.6,1-0.7,1.9-0.8,2.8c-0.9,4.4-2,8.8-3.6,13c-0.4,1-0.8,1.9-1.4,2.7c-0.4,0.5-0.7,0.5-1.2,0.1c-0.6-0.7-1.1-1.4-1.5-2.2
		c-2.5-4.9-4.2-10.1-5.8-15.3c-0.3-1-0.6-1.9-0.9-3c-0.7,0.4-0.5,1-0.6,1.5c-0.3,5.5,0.2,11,0,16.4c0,0.6,0.3,1.5-0.4,1.9
		c-1,0.5-2,0.9-3.1,1c-0.6,0.1-0.5-0.7-0.6-1.1c-0.1-2.7-0.2-5.5-0.3-8.2c-0.2-5.7-0.5-11.5-0.7-17.2c-0.1-3.2-0.2-6.4-0.2-9.7
		c0-1.2,0-2.3-0.2-3.5c-0.1-0.8,0-1.3,0.9-1.6c1.3-0.5,2.6-1.1,4.1-1.7c0.6,1.8,0.6,3.7,0.8,5.5c1.5,10.1,3.3,20.1,6.6,29.8
		C81.4,272.3,81.9,274,83.3,275.5z M73,236.9c-0.9-0.1-1.5,0.4-2.2,0.6c-1.1,0.3-1.4,0.9-1.3,2.1c0.3,5.1,0.4,10.3,0.5,15.4
		c0.2,6.9,0.4,13.8,0.6,20.7c0,0.3,0,0.5,0.1,0.8c0.1,0.6,0.4,0.8,1,0.6c1.3-0.3,1.5-0.6,1.5-2.2c0-6.2,0-12.5-0.1-18.7
		c0-0.7-0.3-1.8,0.6-1.9c0.9-0.2,1,0.9,1.2,1.6c0.9,3.4,2,6.8,3.1,10.2c0.4,1.2,0.7,2.4,1.5,3.5C76.3,258.9,74.4,247.9,73,236.9z
		 M93.2,240.6c-1.1,0.4-1.7,0.7-2.4,0.9c-0.9,0.3-1.1,0.8-1.2,1.7c-0.2,3.6-0.6,7.2-0.9,10.8c-0.2,2.1-0.8,4.1-0.4,6.2
		c0.3-0.8,0.5-1.7,0.7-2.5c0.1-0.4,0.1-0.8,0.7-0.8c0.5,0,0.7,0.4,0.8,0.8c0.1,0.3,0.2,0.5,0.2,0.8c-0.1,2.1,0.2,4.2,0.3,6.4
		c0.2,3.9,0.3,7.8,0.5,11.7c0,0.5-0.1,1.2,0.7,1.3c0.7,0.1,1.5-0.5,1.5-1.3c0-1,0-1.9,0-2.9c-0.2-7.7-0.4-15.3-0.5-23
		C93.2,247.5,93.2,244.3,93.2,240.6z M82.9,276.5c-0.1,0-0.3,0-0.2,0.2c0.1,0.2,0.2,0.5,0.5,0.6c0.1,0.1,0.4-0.1,0.4-0.4
		C83.5,276.6,83.1,276.6,82.9,276.5z M88,262.7c0.2-0.5,0.2-0.9-0.1-1.7C87.9,261.8,87.7,262.2,88,262.7z"/>
	<path class="st0" d="M111.1,258.8c0.3,0.3,0.2,0.6,0.1,0.9c-1.2,4-2.4,8.1-4.1,12c-0.6,1.4-1.4,2.7-2.3,3.9c-0.7,0.9-1.5,1.6-2.6,2
		c-1.4,0.6-2.6,0.3-3.5-0.8c-0.4-0.5-0.8-1-1-1.5c-2.4-6.5-1.8-12.8,2.1-18.5c1-1.5,2.6-2.4,4.5-2.7c1.5-0.3,1.7-0.1,2.2,1.4
		c0.2,0.4,0.4,0.8,0.3,1.3c-0.4,4.2-1.6,8.1-5.1,10.8c-0.9,0.7-1.2,1.3-1.1,2.4c0.2,1.7,0.3,3.4,1.2,4.9c0.7,1.3,1.2,1.3,2.1,0.2
		c0.9-1,1.5-2.1,2-3.3c1.9-3.8,3.2-7.8,4.4-11.9c0.1-0.3,0.1-0.7,0.4-0.9C110.9,258.8,111,258.7,111.1,258.8z M102.2,256.1
		c-1.6,0.6-2.5,1.9-3.2,3.3c-2,4.4-2.5,9.1-1.3,13.8c0.3,1.1,0.7,2.1,1.4,2.9c0.5,0.6,1.2,1,2,0.8c0.7-0.1,1-0.4,0.5-1.1
		c-1-1.3-1.4-2.8-1.6-4.4c-0.5-3.1-0.3-6.3,0.4-9.4C100.8,260.1,101.6,258.2,102.2,256.1z M100.5,266.8c0.4-0.1,0.6-0.1,0.8-0.2
		c3.2-2.6,4.2-6.3,4.6-10.1c0.1-0.6-0.1-1.1-0.7-1.3c-0.7-0.2-1.2,0.2-1.6,0.7C101.5,259.2,100.9,262.9,100.5,266.8z"/>
	<path class="st0" d="M65.7,193.5c1-0.4,2-0.9,3.2-0.6C67.8,193.2,66.8,193.7,65.7,193.5z"/>
	<path class="st0" d="M69.4,192.7c0.5-0.4,1-0.3,1.6-0.3C70.5,192.9,69.9,192.8,69.4,192.7z"/>
	<path class="st4" d="M72.6,191.1c-2.1,0.9-4.3,1-6.5,1.6c-3.8,0.9-3.5,0-3.4,4.3c0.1,5.2,0.3,10.4,0.4,15.6c0,2,0.4,2.7,2.3,2.3
		c0.3-0.1,0.7,0.1,1,0.1l0,0c-0.2,0.7-0.9,0.5-1.4,0.6c-1.7,0.4-1.7,0.5-1.8,2.2c-0.1,3.1,0.4,6.3,0.2,9.4c0,0.5,0.2,1.1-0.6,1.4
		c-0.9,0.4-1.5,0.2-1.5-0.8c-0.2-2.5-0.3-4.9-0.4-7.4c0-0.4,0-0.8,0-1.2c-0.1-3-0.9-2.8-2.8-2.4c-0.1,0-0.1,0-0.2,0
		c-0.6-0.1-1.6,0.3-1.6-0.6c0-1,0.9-0.7,1.6-0.7c0.3,0,0.5,0,0.8,0c1.7-0.1,2-0.4,1.9-2.1c-0.3-5.3-0.6-10.6-0.9-16
		c0-0.7,0.1-1.2,0.7-1.5c0.5-0.3,1.2-0.7,0.7-1.4c-0.4-0.7-1.1-0.5-1.7-0.4c-1.1,0.2-2.3,0.3-3.4,0.5c-0.5,0.1-1,0-1.4,0
		c-0.6,0-0.9-0.4-0.7-1c0.1-0.5,0.3-1,0.5-1.6c0.2-0.5,0.5-0.8,1.1-0.7c5.3,0.4,10.5-0.2,15.8-0.3C71.8,190.8,72.2,190.8,72.6,191.1
		L72.6,191.1z"/>
	<path class="st4" d="M112.5,191c-0.3,2.5-0.6,4.9-0.8,7.3c-0.7,5.8-1,11.7-1.2,17.6c-0.1,3.3-0.3,6.7,0,10c0.1,0.7-0.1,1.4,0.4,1.9
		c0.7,0.7,0,1.1-0.5,1.4c-0.6,0.4-0.9-0.1-1.1-0.5c-0.4-0.7-0.6-1.5-0.7-2.3c-0.5-3.1-0.7-6.2-0.6-9.4c0-0.9,0.3-1.9-0.4-2.8
		c-0.2-0.2-0.1-0.5,0-0.8c0.9-3.5,0.8-7,1.2-10.5c0.4-3.3,0.7-6.5,1.1-9.8C110.1,191.3,110.2,191.4,112.5,191z"/>
	<path class="st3" d="M102.3,224.4c-0.8-1.9-1-4-0.7-6c0.3-2.8,0.8-5.7,2.1-8.3c0.1-0.2,0.1-0.4,0.3-0.6c0.5-0.8,0.9-2.1,1.9-1.8
		c0.9,0.3,1.5,1.5,1.6,2.7c0.1,0.7,0,1.3-0.2,2c-1.4,3.8-2.8,7.7-4.2,11.6C102.9,224.1,102.8,224.3,102.3,224.4z"/>
	<path class="st4" d="M81.7,206.9c-2.7,7.2-4.4,13.9-0.8,20.9c-1.3,0.7-2,0.6-2.9-0.7c-1.1-1.6-1.6-3.4-1.7-5.2
		c-0.2-3.4,0-6.7,1.2-9.9C78.4,210,79.5,208.2,81.7,206.9z"/>
	<path class="st4" d="M92.6,207.5c-2.6,7-4.3,13.8-0.6,20.9c-0.9,0.8-1.7,0.5-2.6-0.3c-0.6-0.5-0.9-1.2-1.2-1.9
		c-0.7-2.4-1.7-4.7-1-7.3c0.4-1.6,0.4-3.4,0.8-5c0.6-2,1.6-3.8,2.9-5.4C91.5,207.9,91.9,207.8,92.6,207.5z"/>
	<path class="st4" d="M103.9,207.8c-2.2,4.1-3.1,8.2-3.2,12.4c0,1.7,0.2,3.4,1.1,4.9c0.5,0.8,0.1,2.9-0.6,3.5
		c-0.2,0.2-0.5,0.2-0.7,0c-0.2-0.1-0.3-0.3-0.4-0.5c-1.4-2-1.9-4.5-2-6.8c0-2.2,0.2-4.6,0.9-6.9c0.6-1.9,1.3-3.7,2.7-5.2
		C102.3,208.8,102.8,208.1,103.9,207.8z"/>
	<path class="st3" d="M90.7,218.9c0.3-3.9,1-7.3,2.6-10.5c0.4-0.8,1.1-1.8,2.1-1.5c1,0.3,0.8,1.5,0.7,2.4c-0.5,2.6-1.3,5.1-2.8,7.4
		C92.7,217.5,92,218.2,90.7,218.9z"/>
	<path class="st3" d="M79.7,218.3c0.1-3.7,0.9-7.1,2.5-10.2c0-0.1,0.1-0.1,0.1-0.2c0.5-0.7,1-1.7,2-1.4c1,0.3,0.7,1.4,0.6,2.2
		c-0.3,2.8-1.3,5.4-2.9,7.8C81.5,217.2,81,217.8,79.7,218.3z"/>
	<path class="st4" d="M66.4,214.9c0.8-0.7,1.7-0.3,2.5-0.3C68.1,214.8,67.3,215.3,66.4,214.9C66.4,214.9,66.4,214.9,66.4,214.9z"/>
	<path class="st4" d="M72.6,191c0.7-0.5,1.5-0.4,2.4-0.1C74.1,191.1,73.4,191.2,72.6,191C72.6,191.1,72.6,191,72.6,191z"/>
	<path class="st4" d="M73,236.9c1.5,11,3.3,22,6.5,32.7c-0.8-1.1-1.1-2.3-1.5-3.5c-1.1-3.4-2.2-6.7-3.1-10.2
		c-0.2-0.7-0.2-1.8-1.2-1.6c-0.9,0.2-0.6,1.2-0.6,1.9c0,6.2,0,12.5,0.1,18.7c0,1.7-0.2,1.9-1.5,2.2c-0.6,0.2-0.9,0-1-0.6
		c0-0.3-0.1-0.5-0.1-0.8c-0.2-6.9-0.4-13.8-0.6-20.7c-0.2-5.1-0.3-10.3-0.5-15.4c-0.1-1.2,0.3-1.8,1.3-2.1
		C71.4,237.3,72.1,236.8,73,236.9z"/>
	<path class="st4" d="M93.2,240.6c0,3.6,0,6.9,0,10.1c0.1,7.7,0.3,15.3,0.5,23c0,1,0.1,1.9,0,2.9c0,0.7-0.8,1.4-1.5,1.3
		c-0.8-0.1-0.7-0.8-0.7-1.3c-0.2-3.9-0.3-7.8-0.5-11.7c-0.1-2.1-0.4-4.2-0.3-6.4c0-0.3-0.1-0.5-0.2-0.8c-0.1-0.4-0.3-0.8-0.8-0.8
		c-0.6,0-0.6,0.4-0.7,0.8c-0.2,0.9-0.4,1.7-0.7,2.5c-0.4-2.1,0.2-4.1,0.4-6.2c0.3-3.6,0.7-7.2,0.9-10.8c0-0.9,0.3-1.4,1.2-1.7
		C91.5,241.3,92.1,241.1,93.2,240.6z"/>
	<path class="st4" d="M82.9,276.5c0.2,0.1,0.6,0.1,0.6,0.4c0,0.2-0.2,0.4-0.4,0.4c-0.2-0.1-0.4-0.4-0.5-0.6
		C82.6,276.5,82.8,276.4,82.9,276.5z"/>
	<path class="st4" d="M88,262.7c-0.3-0.5-0.1-0.9-0.1-1.7C88.2,261.8,88.2,262.2,88,262.7z"/>
	<path class="st4" d="M102.2,256.1c-0.6,2.1-1.4,4-1.8,6.1c-0.7,3.1-0.9,6.2-0.4,9.4c0.2,1.6,0.6,3.1,1.6,4.4c0.5,0.7,0.2,1-0.5,1.1
		c-0.8,0.1-1.5-0.2-2-0.8c-0.7-0.9-1.2-1.9-1.4-2.9c-1.2-4.7-0.8-9.4,1.3-13.8C99.6,258,100.6,256.7,102.2,256.1z"/>
	<path class="st3" d="M100.5,266.8c0.3-3.9,0.9-7.6,3.1-10.9c0.4-0.5,0.9-0.9,1.6-0.7c0.6,0.2,0.8,0.7,0.7,1.3
		c-0.4,3.9-1.4,7.5-4.6,10.1C101.2,266.7,101,266.7,100.5,266.8z"/>
</g>
</svg>
